<svg version="1.1" id="Layer_1" xmlns="http://www.w3.org/2000/svg" xmlns:xlink="http://www.w3.org/1999/xlink" x="0px" y="0px" viewBox="0 0 500 500" style="width: 188px;" xml:space="preserve" data-imageid="data-storage-1-5" imageName="Data Storage 1" class="illustrations_image">
<style type="text/css">
	.st0_data-storage-1-5{fill:#FFFFFF;}
	.st1_data-storage-1-5{fill:#231F20;}
	.st2_data-storage-1-5{fill:#68E1FD;}
	.st3_data-storage-1-5{fill:#D1D3D4;}
</style>
<g id="Character_data-storage-1-5">
	<polygon class="st0_data-storage-1-5" points="163.4,156.8 163.2,145.9 172.9,145.9 174.3,159.4 &#9;"/>
	<path class="st1_data-storage-1-5" d="M174.3,160.1h-0.2l-10.9-2.6c-0.3-0.1-0.5-0.3-0.5-0.7l-0.2-11c0-0.2,0.1-0.4,0.2-0.5c0.1-0.1,0.3-0.2,0.5-0.2&#xA;&#9;&#9;h9.8c0.4,0,0.7,0.3,0.7,0.6l1.4,13.5c0,0.2-0.1,0.4-0.2,0.6C174.6,160,174.5,160.1,174.3,160.1z M164,156.3l9.5,2.2l-1.2-11.9h-8.4&#xA;&#9;&#9;L164,156.3z"/>
	<path class="st1_data-storage-1-5" d="M172.9,145.9l1.4-6.9c0,0-22-7-20.8-3.7s9.7,10.6,9.7,10.6H172.9z"/>
	<path class="st1_data-storage-1-5" d="M172.9,146.6h-9.8c-0.2,0-0.3-0.1-0.4-0.2c-0.4-0.3-8.7-7.5-9.9-10.9c-0.2-0.4-0.1-0.9,0.2-1.3&#xA;&#9;&#9;c1.8-1.9,15.6,2.2,21.4,4.1c0.3,0.1,0.5,0.5,0.5,0.8l-1.4,6.9C173.6,146.3,173.3,146.6,172.9,146.6z M163.4,145.2h8.9l1.1-5.7&#xA;&#9;&#9;c-8.3-2.6-17.7-4.9-19.3-4.3C155.2,137.7,161,143.1,163.4,145.2L163.4,145.2z"/>
	<path class="st1_data-storage-1-5" d="M158.1,202.5c0-1,3.9-48.3,3.9-48.3s14.4-0.7,14,0s3.5,48.3,3.5,48.3H158.1z"/>
	<path class="st1_data-storage-1-5" d="M179.5,203.2h-21.4c-0.4,0-0.7-0.3-0.7-0.7c0-1.1,3.7-46.4,3.9-48.4c0-0.3,0.3-0.6,0.7-0.6&#xA;&#9;&#9;c14-0.7,14.4-0.1,14.6,0.3c0.1,0.2,0.1,0.4,0.1,0.6c-0.1,1.6,2,29.6,3.5,48.1c0,0.2-0.1,0.4-0.2,0.5&#xA;&#9;&#9;C179.9,203.1,179.7,203.2,179.5,203.2z M158.9,201.8h19.9c-2.9-36.2-3.4-44.9-3.4-47.2c-1.6-0.2-7.3-0.1-12.7,0.2&#xA;&#9;&#9;C161.4,170,159.2,197,158.9,201.8z"/>
	<path class="st0_data-storage-1-5" d="M306.5,169.7c0,0-7.8-11.6-6.4-14.9s2.5-9.5,4.2-8.9s7.8,19.7,7.8,19.7L306.5,169.7z"/>
	<path class="st1_data-storage-1-5" d="M306.5,170.4h-0.1c-0.2,0-0.3-0.1-0.5-0.3c-0.8-1.2-7.9-12-6.4-15.6c0.4-1,0.8-2.3,1.2-3.5&#xA;&#9;&#9;c0.8-2.7,1.6-5.1,2.8-5.7c0.3-0.2,0.8-0.2,1.1-0.1c1.8,0.6,6,12.9,8.3,20.1c0.1,0.3,0,0.6-0.2,0.8l-5.7,4.2&#xA;&#9;&#9;C306.9,170.3,306.7,170.4,306.5,170.4z M304.1,146.4c-0.6,0.1-1.6,3.3-2.1,4.9c-0.4,1.3-0.8,2.6-1.2,3.6c-0.9,2.1,3,9.2,5.9,13.7&#xA;&#9;&#9;l4.7-3.5C308.6,156.5,305.2,147.2,304.1,146.4z"/>
	<polygon class="st0_data-storage-1-5" points="126.8,162.3 120.9,153.2 112.6,159.3 117.5,169.1 &#9;"/>
	<path class="st1_data-storage-1-5" d="M117.5,169.8h-0.2c-0.2-0.1-0.4-0.2-0.5-0.4l-4.9-9.8c-0.2-0.3-0.1-0.7,0.2-0.9l8.3-6.1&#xA;&#9;&#9;c0.2-0.1,0.3-0.2,0.5-0.1c0.2,0,0.4,0.2,0.5,0.3l5.9,9.1c0.2,0.3,0.2,0.8-0.2,1c0,0,0,0,0,0l-9.2,6.8&#xA;&#9;&#9;C117.8,169.8,117.7,169.8,117.5,169.8z M113.5,159.5l4.3,8.5l8-5.9l-5.1-7.9L113.5,159.5z"/>
	<path class="st1_data-storage-1-5" d="M120.9,153.2c0,0-4.7-7.9-4.9-7.4s-17.6,12.3-17.4,13.4s14,0,14,0L120.9,153.2z"/>
	<path class="st1_data-storage-1-5" d="M102.8,160.5c-4.6,0-4.8-0.7-4.8-1.1c-0.2-0.9,0.8-2,12.6-10.4c2.2-1.6,4.5-3.2,4.9-3.6&#xA;&#9;&#9;c0.1-0.2,0.3-0.3,0.5-0.3c0.5,0,0.9-0.1,5.6,7.7c0.2,0.3,0.1,0.7-0.2,0.9l-8.3,6.1c-0.1,0.1-0.2,0.1-0.3,0.1&#xA;&#9;&#9;C108.1,160.4,104.9,160.5,102.8,160.5z M99.7,159c1.9,0.3,7.5,0,12.7-0.4l7.6-5.6c-1.6-2.6-3.2-5.2-4-6.2c-0.6,0.5-1.9,1.4-4.6,3.4&#xA;&#9;&#9;C107.7,152.8,101.3,157.4,99.7,159z"/>
	<path class="st2_data-storage-1-5 targetColor" d="M292.2,163.8c1.5,0.5,14.5,27.4,18.5,26s-7.8-21.1-7.8-21.1l10.5-7.6c0,0,26.9,39.7,16.6,48.4&#xA;&#9;&#9;s-49.3-19.8-49.3-19.8L292.2,163.8z" style="fill: rgb(17, 139, 238);"/>
	<path class="st2_data-storage-1-5 targetColor" d="M288.1,157.8c0,0-13.4-10.9-27-1.9s-34.9,24.8-34.9,24.8l8.5,33.3c0,0,20.6,9.1,45.1-2.8&#xA;&#9;&#9;c21.4-10.5,22.5-27.3,19.8-34.3S288.1,157.8,288.1,157.8z" style="fill: rgb(17, 139, 238);"/>
	<path class="st1_data-storage-1-5" d="M278.4,208.1c-0.2,0-0.5-0.1-0.6-0.3c-0.2-0.3-0.2-0.8,0.2-1c0,0,0,0,0,0c0.2-0.1,19-12.9,22.2-26.3&#xA;&#9;&#9;c0.1-0.4,0.5-0.6,0.8-0.5c0.4,0.1,0.6,0.5,0.5,0.8c-3.4,14-22,26.6-22.8,27.1C278.7,208,278.6,208.1,278.4,208.1z"/>
	<path class="st0_data-storage-1-5" d="M287,124.9c-2.1-1.7-4.5-3-7-3.8c-4.4-1.4-9.6-1.8-13.4,0.8c-3.1,2.2-4.7,5.9-5.7,9.5s-1.6,7.4-3.4,10.7&#xA;&#9;&#9;s-5.1,6.1-8.9,5.9c3.9,1.4,7.9,2.8,12,2.9c2.4,0.2,4.9-0.5,6.8-2.1c1.4-1.5,2.4-3.2,3-5.1c1-2.8,2-5.6,4-7.9s5-3.9,7.8-3.2&#xA;&#9;&#9;c2.5,0.6,7.7,5.7,9.7,2C293.4,131.7,288.9,126.7,287,124.9z"/>
	<path class="st1_data-storage-1-5" d="M260.9,151.7h-0.3c-4.3-0.1-8.4-1.5-12.3-2.9c-0.3-0.1-0.5-0.5-0.4-0.8c0.1-0.3,0.4-0.6,0.7-0.6&#xA;&#9;&#9;c3.8,0.2,6.8-2.9,8.2-5.6c1.2-2.5,2.1-5.1,2.6-7.8c0.2-0.9,0.5-1.9,0.7-2.8c1.4-4.8,3.2-8,6-9.9c4.7-3.2,10.8-2,14-0.9&#xA;&#9;&#9;c2.7,0.8,5.2,2.1,7.3,3.9l0,0c2,1.8,6.9,7.2,5,10.6c-0.4,0.8-1.1,1.4-1.9,1.6c-1.8,0.5-4.1-0.8-6-1.9c-0.8-0.5-1.7-1-2.6-1.3&#xA;&#9;&#9;c-2.9-0.7-5.6,1.2-7.1,2.9c-1.6,2.2-2.9,4.7-3.7,7.3L271,144c-0.6,2-1.7,3.9-3.1,5.4C265.9,151,263.4,151.8,260.9,151.7z&#xA;&#9;&#9; M251.5,148.4c2.9,1.1,6,1.7,9.1,1.9c1.9,0.1,4.5-0.2,6.3-1.9c1.3-1.4,2.2-3,2.8-4.9l0.1-0.4c0.9-2.8,2.2-5.4,3.9-7.7&#xA;&#9;&#9;c2.3-2.8,5.6-4.1,8.5-3.4c1.1,0.4,2.1,0.8,3,1.5c1.6,1,3.7,2.1,4.9,1.8c0.4-0.2,0.8-0.5,1-0.9c1.3-2.4-2.7-7.1-4.7-8.9l0,0&#xA;&#9;&#9;c-2-1.7-4.3-2.9-6.8-3.7c-3-1-8.6-2.2-12.8,0.7c-2.5,1.7-4.2,4.6-5.4,9.1c-0.3,0.9-0.5,1.9-0.7,2.8c-0.6,2.8-1.5,5.5-2.7,8.1&#xA;&#9;&#9;C256.6,145.2,254.3,147.3,251.5,148.4z"/>
	<path class="st1_data-storage-1-5" d="M288.7,127.8c-1.7,0.5-3.2,1.6-4.2,3c-0.8,0.9-1.2,2-1.4,3.2c0,1.5,0.6,2.8,1.7,3.8c0.5,0.4,1.1,0.7,1.7,0.7&#xA;&#9;&#9;c0.5-0.1,1-0.3,1.5-0.6C291.2,135.7,297,125.8,288.7,127.8z"/>
	<path class="st1_data-storage-1-5" d="M286.5,139.2c-0.8,0-1.5-0.3-2.1-0.9c-1.3-1-2.1-2.7-2-4.3c0.1-1.3,0.6-2.6,1.5-3.6c1.1-1.6,2.7-2.7,4.6-3.3&#xA;&#9;&#9;l0,0c3.2-0.8,4.4,0.2,4.9,1.2c1.2,2.8-2.6,8.5-5,10.1c-0.5,0.4-1.2,0.7-1.8,0.7L286.5,139.2z M288.9,128.5&#xA;&#9;&#9;c-1.5,0.5-2.9,1.4-3.8,2.8c-0.7,0.8-1.1,1.8-1.2,2.8c0,1.2,0.5,2.4,1.5,3.2c0.3,0.3,0.8,0.5,1.2,0.5c0.4-0.1,0.8-0.2,1.1-0.5&#xA;&#9;&#9;c2.1-1.4,5.3-6.5,4.5-8.4C291.7,128,289.9,128.3,288.9,128.5L288.9,128.5z"/>
	<path class="st0_data-storage-1-5" d="M289.4,161.9c-1.7,0.2-3.3-0.4-5.1-2.5c-1.4-1.8-2.4-3.9-2.8-6.1c-1.7-8.8,1.7-17.8,8.8-23.3&#xA;&#9;&#9;c7.1-5.3,19.5-5.6,24,3.4c1.5,3.1,1.6,6.7,0.2,9.8c1.2,0.6,2,1.8,2,3.2c0.1,3.4-1.8,5.3-4.7,6.5c-4.9,2-9.9,3.5-14.7,5.7&#xA;&#9;&#9;C294.3,159.7,291.9,161.6,289.4,161.9z"/>
	<path class="st1_data-storage-1-5" d="M288.9,162.6c-1.9,0-3.5-0.9-5.1-2.8c-1.5-1.9-2.5-4.1-2.9-6.4c-1.8-9.1,1.7-18.4,9-24&#xA;&#9;&#9;c4.6-3.3,10.4-4.5,16-3.4c3.9,0.8,7.3,3.4,9.1,7c1.5,3.1,1.7,6.6,0.5,9.8c1.1,0.8,1.8,2.1,1.8,3.5c0.1,4.4-2.9,6.2-5.2,7.1&#xA;&#9;&#9;c-2,0.8-4.1,1.6-6.1,2.3c-2.9,1-5.8,2.1-8.6,3.4c-0.9,0.4-1.8,0.9-2.6,1.4c-1.6,1.1-3.4,1.8-5.3,2.1l0,0L288.9,162.6z M289.4,161.9&#xA;&#9;&#9;L289.4,161.9z M301.8,126.9c-4,0-7.9,1.3-11.1,3.6c-6.9,5.3-10.1,14-8.5,22.6c0.4,2.1,1.3,4.1,2.6,5.8c1.9,2.3,3.5,2.4,4.5,2.3&#xA;&#9;&#9;c1.7-0.4,3.3-1,4.7-2c0.9-0.5,1.8-1,2.7-1.4c2.8-1.3,5.8-2.4,8.7-3.4c2-0.7,4-1.5,6-2.3c3.1-1.3,4.4-3,4.3-5.8&#xA;&#9;&#9;c0-1.1-0.6-2.1-1.5-2.6c-0.4-0.1-0.5-0.5-0.4-0.9c0,0,0,0,0-0.1c1.3-2.9,1.2-6.3-0.2-9.2c-1.6-3.2-4.6-5.5-8.2-6.3&#xA;&#9;&#9;C304.3,127,303,126.9,301.8,126.9L301.8,126.9z"/>
	<path class="st0_data-storage-1-5" d="M308.5,152.1c0,0,0.8,7.5-0.6,8.2s-3.5-1.3-3.5-1.3"/>
	<path class="st1_data-storage-1-5" d="M307.2,161.1c-1.5,0-3.1-1.5-3.3-1.7c-0.3-0.3-0.3-0.7,0-1c0,0,0,0,0,0c0.3-0.3,0.7-0.3,1,0&#xA;&#9;&#9;c0.7,0.7,2,1.6,2.6,1.2s0.6-4,0.2-7.5c0-0.4,0.2-0.7,0.6-0.8c0,0,0,0,0,0c0.4,0,0.7,0.2,0.8,0.6c0.3,3,0.6,8-1,8.9&#xA;&#9;&#9;C307.9,161.1,307.6,161.1,307.2,161.1z"/>
	<path class="st0_data-storage-1-5" d="M288.1,177.9c-5-4.1-8.5-16.3-8.3-16.6c1.9-4,6.7-11.1,6.7-11.1s4,2.1,8.8-1.4s9.4-0.4,16.3-4.5&#xA;&#9;&#9;c1.3,3.1-1.5,6.8-2.8,9.4c-2,3.7-4,7.3-6.1,10.9c-1.4,2.3-7.4-0.9-8.1-2.1C292.9,166.3,292.9,166.3,288.1,177.9z"/>
	<path class="st1_data-storage-1-5" d="M288.1,178.6c-0.2,0-0.3-0.1-0.5-0.2c-5-4-8.9-16.5-8.5-17.4c2-3.9,4.3-7.6,6.7-11.2c0.2-0.3,0.6-0.4,0.9-0.2&#xA;&#9;&#9;c0.1,0.1,3.7,1.9,8.1-1.4c2.5-1.8,4.9-2,7.5-2.2c3.1,0,6.2-0.8,8.9-2.4c0.3-0.2,0.7-0.1,0.9,0.2c0,0,0,0.1,0.1,0.1&#xA;&#9;&#9;c1.2,2.9-0.6,6.1-2.1,8.6c-0.3,0.5-0.5,1-0.8,1.4c-2,3.7-4,7.3-6.1,10.9c-0.5,0.8-1.5,1.2-2.4,1.1c-2.2-0.2-4.3-1-6-2.4&#xA;&#9;&#9;c-1.2,2.9-1.6,3.9-6,14.5c-0.1,0.2-0.3,0.4-0.5,0.4C288.2,178.6,288.2,178.6,288.1,178.6z M280.5,161.5c0.3,1.4,3.2,11.1,7.4,15.2&#xA;&#9;&#9;c4.4-10.8,4.5-10.9,6-14.5c0.1-0.2,0.3-0.4,0.6-0.4c0.3,0,0.5,0.1,0.7,0.4c0.4,0.6,3.6,2.5,5.7,2.5c0.5,0.1,0.9-0.1,1.2-0.5&#xA;&#9;&#9;c2.1-3.5,4.1-7.2,6.1-10.8c0.2-0.4,0.5-0.9,0.8-1.4c1.2-2,2.6-4.5,2.2-6.6c-2.7,1.4-5.7,2.1-8.7,2.2c-2.5,0.2-4.6,0.3-6.8,1.9&#xA;&#9;&#9;c-4.1,3-7.6,2.2-9,1.7C285.6,152.8,282.1,158.2,280.5,161.5z"/>
	<path class="st0_data-storage-1-5" d="M303.9,161.8c0,0-3.8,0.3-3.8-3.5"/>
	<path class="st1_data-storage-1-5" d="M303.8,162.5c-1.1,0-2.3-0.4-3.1-1.1c-0.8-0.8-1.2-1.9-1.2-3.1c0-0.4,0.3-0.7,0.7-0.7l0,0&#xA;&#9;&#9;c0.4,0,0.7,0.3,0.7,0.7c0,0,0,0,0,0c-0.1,0.8,0.2,1.5,0.7,2.1c0.6,0.5,1.4,0.8,2.3,0.7c0.4,0,0.7,0.2,0.7,0.6c0,0,0,0,0,0&#xA;&#9;&#9;c0,0.4-0.2,0.7-0.6,0.7c0,0,0,0,0,0L303.8,162.5z"/>
	<path class="st1_data-storage-1-5" d="M294.5,162.5c0,0-3-1.8-3.4-4.7c0,0-2.8,5.8,1.2,9.9L294.5,162.5z"/>
	<path class="st1_data-storage-1-5" d="M292.3,168.4c-0.2,0-0.4-0.1-0.5-0.2c-4.2-4.4-1.5-10.4-1.3-10.7c0.1-0.3,0.4-0.4,0.8-0.4&#xA;&#9;&#9;c0.3,0.1,0.5,0.3,0.6,0.6c0.3,2.5,3,4.1,3,4.1c0.3,0.2,0.4,0.6,0.3,0.9L293,168c-0.1,0.2-0.3,0.4-0.5,0.4L292.3,168.4z M291.1,160&#xA;&#9;&#9;c-0.6,2.2-0.2,4.5,1,6.3l1.5-3.6C292.6,162,291.7,161.1,291.1,160L291.1,160z"/>
	<ellipse transform="matrix(0.5243 -0.8515 0.8515 0.5243 19.1817 333.615)" class="st1_data-storage-1-5" cx="308.2" cy="149.6" rx="1.5" ry="0.6"/>
	<path class="st0_data-storage-1-5" d="M300,150c0.4-1,0.5-2,0.3-3.1c0-0.8-0.2-1.6-0.5-2.4c-0.3-0.8-0.9-1.4-1.7-1.6c-0.7-0.2-1.4,0-2,0.4&#xA;&#9;&#9;c-0.6,0.4-1.1,1-1.4,1.6c-1.6,2.8-1.6,6.2,0,8.9l-0.1-0.3"/>
	<path class="st1_data-storage-1-5" d="M294.7,154.5c-0.2,0-0.5-0.1-0.6-0.4c-1.7-3-1.7-6.6,0-9.6c0.4-0.7,1-1.3,1.6-1.8c0.8-0.5,1.7-0.7,2.6-0.5&#xA;&#9;&#9;c1,0.3,1.8,1.1,2.1,2.1c0.3,0.8,0.5,1.7,0.5,2.6c0.2,1.2,0.1,2.4-0.4,3.4c-0.2,0.3-0.6,0.5-0.9,0.3c-0.3-0.2-0.5-0.6-0.3-0.9&#xA;&#9;&#9;c0.3-0.9,0.4-1.8,0.2-2.7c0-0.7-0.2-1.5-0.4-2.2c-0.2-0.6-0.6-1-1.2-1.2c-0.5-0.1-1,0-1.5,0.3c-0.5,0.4-0.9,0.8-1.2,1.4&#xA;&#9;&#9;c-1.3,2.3-1.5,5.2-0.3,7.7c0.1,0.1,0.2,0.2,0.3,0.4l0.1,0.3c0.1,0.3-0.1,0.7-0.4,0.8C294.9,154.5,294.8,154.5,294.7,154.5z"/>
	<path class="st1_data-storage-1-5" d="M226.2,180.7c-6.5-2.7-22.1,0.6-31.9,3.9s-42.2,12.1-42.2,12.1l-23.6-37.4c0,0-16.8,6.1-15.9,7.5&#xA;&#9;&#9;s16.8,39.3,32.7,46.9s91.1,0.6,91.1,0.6L226.2,180.7z"/>
	<path class="st1_data-storage-1-5" d="M178.6,218c-14.6,0-27.8-0.9-33.6-3.7c-9.3-4.5-20-19.6-31.9-45c-0.5-1.1-0.9-2-1-2.2&#xA;&#9;&#9;c-0.2-0.2-0.2-0.5-0.1-0.8c0.6-1.8,10.5-5.6,16.3-7.7c0.3-0.1,0.7,0,0.8,0.3l23.3,36.9c4.1-1.1,32.6-9,41.6-12&#xA;&#9;&#9;c8-2.7,25-6.9,32.4-3.8c0.2,0.1,0.3,0.2,0.4,0.4l10.3,33.7c0.1,0.2,0,0.4-0.1,0.6c-0.1,0.2-0.3,0.3-0.5,0.3&#xA;&#9;&#9;C234.6,215.2,204.3,218,178.6,218z M113.4,166.6c0.2,0.3,0.5,1,1,2.1c11.7,25.1,22.2,40,31.2,44.4c14.6,7.1,81.6,1.4,89.9,0.7&#xA;&#9;&#9;l-9.9-32.6c-6.7-2.5-22.2,1-31.1,4c-9.7,3.2-41.9,12.1-42.2,12.1c-0.3,0.1-0.6,0-0.8-0.3l-23.3-36.9&#xA;&#9;&#9;C121.5,162.6,114.5,165.6,113.4,166.6L113.4,166.6z"/>
	<polygon class="st0_data-storage-1-5" points="290.2,214.2 290.2,208.4 328.3,208.4 344,169.7 399.3,169.7 381.1,208.3 381.1,214.2 &#9;"/>
	<path class="st1_data-storage-1-5" d="M381.1,214.9h-90.9c-0.4,0-0.7-0.3-0.7-0.7c0,0,0,0,0,0v-5.8c0-0.4,0.3-0.7,0.7-0.7l0,0h37.6l15.5-38.3&#xA;&#9;&#9;c0.1-0.3,0.4-0.4,0.7-0.4h55.3c0.4,0,0.7,0.3,0.7,0.7c0,0.1,0,0.2-0.1,0.3l-18.1,38.4v5.8C381.8,214.6,381.5,214.9,381.1,214.9z&#xA;&#9;&#9; M290.9,213.5h89.5v-5.3c0-0.1,0-0.2,0.1-0.3l17.7-37.6h-53.7L329,208.7c-0.1,0.3-0.4,0.4-0.6,0.4H291L290.9,213.5z"/>
	<path class="st2_data-storage-1-5 targetColor" d="M251.7,164.6c0,0,6.3,48.6,10.7,49.7s49.4-8.2,49.4-8.2l-3.1-15.7c0,0-32.3,5.7-31.8,0s-3.6-27.4-3.6-27.4&#xA;&#9;&#9;L251.7,164.6z" style="fill: rgb(17, 139, 238);"/>
	<path class="st1_data-storage-1-5" d="M262.7,214.2c-1.6,0-3.2-0.1-4.8-0.4c-3.1-0.7-5.4-3.9-6.8-9.5c-1.7-6.9-1.7-15.5-1.5-20.1&#xA;&#9;&#9;c0-0.1,0.4-11.2,1.7-12.2c0.3-0.3,0.7-0.3,1,0s0.3,0.7,0,1c-0.9,1.6-3.2,24,1.4,34.7c1.2,2.8,2.7,4.4,4.5,4.8&#xA;&#9;&#9;c10.6,2.3,53.1-7,53.6-7.1c0.4-0.1,0.7,0.2,0.8,0.5c0,0,0,0,0,0c0.1,0.4-0.1,0.7-0.5,0.8c0,0,0,0,0,0&#xA;&#9;&#9;C310.5,207.1,277.7,214.2,262.7,214.2z"/>
	<path class="st1_data-storage-1-5" d="M280.5,193.7c-1,0-2-0.4-2.7-1.1c-5.6-5.3-5.1-28.6-5.1-29.6c0-0.4,0.3-0.7,0.7-0.7c0,0,0,0,0,0&#xA;&#9;&#9;c0.4,0,0.7,0.3,0.7,0.7c0,0.2-0.5,23.7,4.7,28.6c0.5,0.5,1.2,0.8,1.9,0.7c8-0.7,27.8-2.6,28-2.6c0.4,0,0.7,0.3,0.7,0.7&#xA;&#9;&#9;c0,0.3-0.2,0.6-0.6,0.7c-0.2,0-20,1.9-28,2.6L280.5,193.7z"/>
	<path class="st0_data-storage-1-5" d="M310.7,193c0,0,9.6-6.5,11.4-4.9s9.9,12.1,7.7,12.9s-5.7-3-5.7-3s-2.1,3.4-10.6,2.2L310.7,193z"/>
	<path class="st1_data-storage-1-5" d="M329.1,201.9c-1.9,0-4.1-1.8-5.1-2.8c-1.1,1-4.1,2.8-10.7,1.9c-0.3,0-0.5-0.2-0.6-0.4l-2.8-7.3&#xA;&#9;&#9;c-0.1-0.3,0-0.6,0.3-0.8c3-2,10.2-6.6,12.2-4.8c1.1,1.1,8.8,10.4,8.3,13.1c-0.1,0.5-0.4,0.8-0.8,1&#xA;&#9;&#9;C329.7,201.8,329.4,201.9,329.1,201.9z M324,197.4c0.2,0,0.4,0.1,0.5,0.2c1.2,1.3,3.6,3.2,4.9,2.8c0.2-1.6-5.8-9.9-7.9-11.8&#xA;&#9;&#9;c-0.7-0.7-5.3,1.5-10,4.6l2.4,6.4c7.5,0.9,9.5-1.9,9.5-1.9C323.5,197.5,323.7,197.4,324,197.4L324,197.4z"/>
	<path class="st0_data-storage-1-5" d="M158.1,193.7c-0.4,0-0.7-0.3-0.7-0.7c0-0.3,0.2-0.6,0.5-0.7l21.4-4.7c0.4-0.1,0.8,0.2,0.8,0.5&#xA;&#9;&#9;c0.1,0.4-0.2,0.8-0.5,0.8l0,0l-21.4,4.7L158.1,193.7z"/>
	<path class="st1_data-storage-1-5" d="M380.5,209.1h-52.2c-0.4,0-0.7-0.3-0.7-0.7c0-0.4,0.3-0.7,0.7-0.7h52.2c0.4,0,0.7,0.3,0.7,0.7&#xA;&#9;&#9;C381.2,208.8,380.9,209.1,380.5,209.1z"/>
</g>
<g id="Servers_data-storage-1-5">
	<rect x="120.2" y="225.7" class="st1_data-storage-1-5" width="274.5" height="189.4"/>
	<path class="st1_data-storage-1-5" d="M394.7,415.8H120.2c-0.4,0-0.7-0.3-0.7-0.7c0,0,0,0,0,0V225.7c0-0.4,0.3-0.7,0.7-0.7c0,0,0,0,0,0h274.5&#xA;&#9;&#9;c0.4,0,0.7,0.3,0.7,0.7c0,0,0,0,0,0v189.4C395.4,415.5,395.1,415.8,394.7,415.8L394.7,415.8z M120.9,414.4H394v-188H120.9&#xA;&#9;&#9;L120.9,414.4z"/>
	<path class="st0_data-storage-1-5" d="M111.3,214.1h292.3c5.5,0,9.9,4.4,9.9,9.9V265c0,5.5-4.4,9.9-9.9,9.9H111.3c-5.5,0-9.9-4.4-9.9-9.9v-41.1&#xA;&#9;&#9;C101.4,218.5,105.9,214.1,111.3,214.1z"/>
	<path class="st1_data-storage-1-5" d="M399.7,275.6H115.3c-8,0-14.5-6.5-14.5-14.5v-33.2c0-8,6.5-14.5,14.5-14.5h284.4c8,0,14.5,6.5,14.5,14.5v33.2&#xA;&#9;&#9;C414.2,269.1,407.7,275.6,399.7,275.6z M115.3,214.8c-7.2,0-13.1,5.9-13.1,13.1v33.2c0,7.2,5.9,13.1,13.1,13.1h284.4&#xA;&#9;&#9;c7.2,0,13.1-5.9,13.1-13.1v-33.2c0-7.2-5.9-13.1-13.1-13.1L115.3,214.8z"/>
	<path class="st0_data-storage-1-5" d="M111.3,285.6h292.3c5.5,0,9.9,4.4,9.9,9.9v41.1c0,5.5-4.4,9.9-9.9,9.9H111.3c-5.5,0-9.9-4.4-9.9-9.9v-41.1&#xA;&#9;&#9;C101.4,290,105.9,285.6,111.3,285.6z"/>
	<path class="st1_data-storage-1-5" d="M399.7,347.1H115.3c-8,0-14.5-6.5-14.5-14.5v-33.2c0-8,6.5-14.5,14.5-14.5h284.4c8,0,14.5,6.5,14.5,14.5v33.2&#xA;&#9;&#9;C414.2,340.6,407.7,347.1,399.7,347.1z M115.3,286.3c-7.2,0-13.1,5.9-13.1,13.1v33.2c0,7.2,5.9,13.1,13.1,13.1h284.4&#xA;&#9;&#9;c7.2,0,13.1-5.9,13.1-13.1v-33.2c0-7.2-5.9-13.1-13.1-13.1L115.3,286.3z"/>
	<path class="st0_data-storage-1-5" d="M111.3,357.1h292.3c5.5,0,9.9,4.4,9.9,9.9v41.1c0,5.5-4.4,9.9-9.9,9.9H111.3c-5.5,0-9.9-4.4-9.9-9.9V367&#xA;&#9;&#9;C101.4,361.5,105.9,357.1,111.3,357.1z"/>
	<path class="st1_data-storage-1-5" d="M399.7,418.6H115.3c-8,0-14.5-6.5-14.5-14.5V371c0-8,6.5-14.5,14.5-14.5h284.4c8,0,14.5,6.5,14.5,14.5v33.2&#xA;&#9;&#9;C414.2,412.2,407.7,418.6,399.7,418.6z M115.3,357.8c-7.3,0-13.1,5.9-13.1,13.1c0,0,0,0,0,0v33.2c0,7.2,5.9,13.1,13.1,13.1h284.4&#xA;&#9;&#9;c7.2,0,13.1-5.9,13.1-13.1V371c0-7.2-5.9-13.1-13.1-13.1L115.3,357.8z"/>
	<path class="st3_data-storage-1-5" d="M328.3,242.9H121.1c-0.4,0-0.8-0.3-0.8-0.8c0-0.4,0.3-0.8,0.8-0.8c0,0,0,0,0,0h207.2c0.4,0,0.8,0.4,0.8,0.8&#xA;&#9;&#9;C329.1,242.6,328.8,242.9,328.3,242.9z"/>
	<path class="st3_data-storage-1-5" d="M347.1,248.1c-3.3,0-5.9-2.7-5.9-5.9s2.7-5.9,5.9-5.9c3.3,0,5.9,2.7,5.9,5.9&#xA;&#9;&#9;C353,245.4,350.4,248.1,347.1,248.1z M347.1,237.8c-2.4,0-4.4,1.9-4.4,4.4c0,2.4,1.9,4.4,4.4,4.4c2.4,0,4.4-1.9,4.4-4.4&#xA;&#9;&#9;c0,0,0,0,0,0C351.5,239.7,349.5,237.8,347.1,237.8z"/>
	<circle class="st1_data-storage-1-5" cx="368.8" cy="242.1" r="5.1"/>
	<path class="st1_data-storage-1-5" d="M368.8,248c-3.2,0-5.8-2.6-5.8-5.8s2.6-5.8,5.8-5.8c3.2,0,5.8,2.6,5.8,5.8c0,0,0,0,0,0&#xA;&#9;&#9;C374.6,245.4,372,248,368.8,248z M368.8,237.7c-2.5,0-4.4,2-4.4,4.5s2,4.4,4.5,4.4c2.5,0,4.4-2,4.4-4.4&#xA;&#9;&#9;C373.2,239.7,371.3,237.7,368.8,237.7C368.8,237.7,368.8,237.7,368.8,237.7L368.8,237.7z"/>
	<circle class="st2_data-storage-1-5 targetColor" cx="390.5" cy="242.1" r="5.1" style="fill: rgb(17, 139, 238);"/>
	<path class="st3_data-storage-1-5" d="M328.3,314.4H121.1c-0.4,0-0.8-0.3-0.9-0.7c0-0.4,0.3-0.8,0.7-0.9c0.1,0,0.1,0,0.2,0h207.2&#xA;&#9;&#9;c0.4,0,0.8,0.3,0.9,0.7s-0.3,0.8-0.7,0.9C328.5,314.4,328.4,314.4,328.3,314.4z"/>
	<path class="st3_data-storage-1-5" d="M347.1,319.6c-3.3,0-5.9-2.7-5.9-5.9s2.7-5.9,5.9-5.9c3.3,0,5.9,2.7,5.9,5.9&#xA;&#9;&#9;C353,316.9,350.4,319.6,347.1,319.6z M347.1,309.3c-2.4,0-4.4,1.9-4.4,4.4s1.9,4.4,4.4,4.4c2.4,0,4.4-1.9,4.4-4.4c0,0,0,0,0,0&#xA;&#9;&#9;C351.5,311.3,349.5,309.3,347.1,309.3z"/>
	<circle class="st1_data-storage-1-5" cx="368.8" cy="313.7" r="5.1"/>
	<path class="st1_data-storage-1-5" d="M368.8,319.5c-3.2,0-5.8-2.6-5.8-5.8s2.6-5.8,5.8-5.8s5.8,2.6,5.8,5.8l0,0C374.6,316.9,372,319.5,368.8,319.5z&#xA;&#9;&#9; M368.8,309.2c-2.5,0-4.4,2-4.4,4.5c0,2.5,2,4.5,4.5,4.4c2.5,0,4.4-2,4.4-4.5c0,0,0,0,0,0C373.2,311.2,371.2,309.2,368.8,309.2&#xA;&#9;&#9;C368.8,309.2,368.8,309.2,368.8,309.2z"/>
	<circle class="st2_data-storage-1-5 targetColor" cx="390.5" cy="313.7" r="5.1" style="fill: rgb(17, 139, 238);"/>
	<path class="st3_data-storage-1-5" d="M328.3,386H121.1c-0.4,0-0.8-0.4-0.8-0.8c0-0.4,0.3-0.8,0.8-0.8h207.2c0.4,0,0.8,0.4,0.8,0.8&#xA;&#9;&#9;C329.1,385.7,328.8,386,328.3,386z"/>
	<path class="st3_data-storage-1-5" d="M347.1,391.1c-3.3,0-5.9-2.7-5.9-5.9s2.7-5.9,5.9-5.9c3.3,0,5.9,2.7,5.9,5.9&#xA;&#9;&#9;C353,388.5,350.4,391.1,347.1,391.1z M347.1,380.8c-2.4,0-4.4,1.9-4.4,4.4s1.9,4.4,4.4,4.4c2.4,0,4.4-1.9,4.4-4.4c0,0,0,0,0,0&#xA;&#9;&#9;C351.5,382.8,349.5,380.8,347.1,380.8z"/>
	<circle class="st1_data-storage-1-5" cx="368.8" cy="385.2" r="5.1"/>
	<path class="st1_data-storage-1-5" d="M368.8,391c-3.2,0-5.8-2.6-5.8-5.8s2.6-5.8,5.8-5.8s5.8,2.6,5.8,5.8l0,0C374.6,388.4,372,391,368.8,391z&#xA;&#9;&#9; M368.8,380.7c-2.5,0-4.4,2-4.4,4.5c0,2.5,2,4.5,4.5,4.4c2.5,0,4.4-2,4.4-4.5c0,0,0,0,0,0C373.2,382.7,371.2,380.7,368.8,380.7&#xA;&#9;&#9;L368.8,380.7z"/>
	<circle class="st2_data-storage-1-5 targetColor" cx="390.5" cy="385.2" r="5.1" style="fill: rgb(17, 139, 238);"/>
</g>
<g id="Cloud_data-storage-1-5">
	<path class="st0_data-storage-1-5" d="M375.5,120.5c-0.6-0.6-1-1-1.5-1.4c-2.1-2.1-5.3-2.8-8-1.6c-2.7,1.2-4.4,4-4.2,7c0,0.7-0.2,0.9-0.8,1.1&#xA;&#9;&#9;c-5.8,1.5-9.3,7.4-7.8,13.2c1.2,4.8,5.6,8.2,10.6,8.1h44.1c0.6,0,1.1,0,1.7-0.1c5.3-0.8,9-5.8,8.2-11.1c-0.6-4.1-3.9-7.4-8-8.1&#xA;&#9;&#9;c-1.1-0.2-2.2-0.2-3.3-0.2c1.8-8.2-3.1-16.3-11.1-18.6c-3.4-1-7.1-0.8-10.4,0.6C379.9,111.5,377,115.4,375.5,120.5z"/>
	<path class="st3_data-storage-1-5" d="M381.1,147.7h-17.4c-6.3,0.1-11.6-4.9-11.7-11.3c0-0.3,0-0.6,0-0.8c0.2-5.1,3.8-9.3,8.7-10.6&#xA;&#9;&#9;c0.1,0,0.2-0.1,0.3-0.1c0-0.1,0-0.2,0-0.3c-0.3-3.3,1.6-6.4,4.6-7.7c3-1.3,6.5-0.6,8.8,1.7c0.2,0.2,0.4,0.4,0.6,0.6&#xA;&#9;&#9;c1.5-4.7,4.9-8.5,9.5-10.5c3.4-1.5,7.3-1.7,10.9-0.7c8.8,2.4,12.8,11.2,11.8,18.7h0.2c0.8,0,1.6,0.1,2.3,0.2&#xA;&#9;&#9;c5.7,1,9.5,6.4,8.5,12.1c-0.8,4.4-4.3,7.9-8.7,8.6c-0.6,0.1-1.2,0.1-1.8,0.1H381.1z M368.8,117.6c-0.9,0-1.7,0.2-2.5,0.5&#xA;&#9;&#9;c-2.5,1.1-4,3.6-3.8,6.4c0.2,0.9-0.4,1.7-1.3,1.8c0,0-0.1,0-0.1,0c-5.4,1.3-8.7,6.8-7.4,12.3c1.1,4.6,5.3,7.8,10,7.7&#xA;&#9;&#9;c14.7,0,29.4,0,44.1,0c0.5,0,1.1,0,1.6-0.1c4.9-0.6,8.5-5.1,7.9-10c-0.5-4.1-3.6-7.3-7.7-7.8c-0.7-0.1-1.4-0.1-2.2-0.2&#xA;&#9;&#9;c-0.4,0-0.7,0-1.1-0.1c-0.4,0-0.7-0.3-0.7-0.7c0,0,0-0.1,0-0.1c1.7-7.8-2.9-15.6-10.6-17.8c-3.3-1-6.8-0.7-10,0.6&#xA;&#9;&#9;c-4.5,2-7.5,5.4-9,10.7c-0.1,0.2-0.3,0.4-0.5,0.5c-0.2,0-0.5,0-0.6-0.2l-0.5-0.5l-1-0.9C372.2,118.3,370.6,117.6,368.8,117.6z"/>
	<path class="st0_data-storage-1-5" d="M187,94.4c-0.6-0.5-1-1-1.5-1.4c-2.1-2.1-5.3-2.8-8-1.6c-2.8,1.2-4.4,4-4.2,7c0,0.7-0.2,0.9-0.8,1.1&#xA;&#9;&#9;c-5.8,1.5-9.3,7.4-7.8,13.2c1.2,4.8,5.6,8.2,10.6,8.1h44.1c0.6,0,1.1,0,1.7-0.1c5.3-0.8,9-5.8,8.2-11.1c-0.6-4.1-3.9-7.4-8-8.1&#xA;&#9;&#9;c-1.1-0.2-2.2-0.2-3.3-0.2c1.8-8.2-3.1-16.3-11.1-18.6c-3.4-1-7.1-0.8-10.4,0.6C191.5,85.4,188.5,89.3,187,94.4z"/>
	<path class="st3_data-storage-1-5" d="M193.3,121.6h-17.9c-6.3,0.1-11.6-5-11.7-11.3c0-0.3,0-0.5,0-0.8c0.2-5.1,3.8-9.4,8.7-10.6&#xA;&#9;&#9;c0.1,0,0.2-0.1,0.3-0.1c0-0.1,0-0.2,0-0.3c-0.3-3.3,1.6-6.4,4.6-7.7c3-1.3,6.5-0.6,8.7,1.7c0.2,0.2,0.4,0.4,0.6,0.6&#xA;&#9;&#9;c1.5-4.7,4.9-8.5,9.4-10.5c3.4-1.5,7.3-1.7,10.9-0.7c8.8,2.4,12.8,11.2,11.8,18.7h0.2c0.8,0,1.6,0.1,2.3,0.2&#xA;&#9;&#9;c5.7,1,9.5,6.4,8.5,12.1c-0.8,4.4-4.3,7.9-8.7,8.6c-0.6,0.1-1.2,0.1-1.8,0.1L193.3,121.6z M180.4,91.5c-0.9,0-1.7,0.2-2.5,0.5&#xA;&#9;&#9;c-2.5,1.1-4,3.7-3.8,6.4c0.2,0.9-0.4,1.7-1.3,1.8c0,0-0.1,0-0.1,0c-5.4,1.3-8.7,6.8-7.4,12.3c1.1,4.6,5.3,7.8,10,7.7h44.1&#xA;&#9;&#9;c0.5,0,1.1,0,1.6-0.1c4.9-0.6,8.5-5.1,7.9-10c-0.5-4.1-3.7-7.3-7.7-7.8c-0.7-0.1-1.4-0.1-2.2-0.2c-0.4,0-0.7,0-1.1,0&#xA;&#9;&#9;c-0.4,0-0.7-0.3-0.7-0.7c0,0,0-0.1,0-0.1c1.7-7.8-2.9-15.6-10.6-17.8c-3.3-1-6.8-0.7-10,0.6c-4.6,2-7.5,5.4-9,10.7&#xA;&#9;&#9;c-0.1,0.2-0.3,0.4-0.5,0.5c-0.2,0.1-0.5,0-0.7-0.2l-0.5-0.5l-0.9-0.9C183.8,92.3,182.1,91.5,180.4,91.5z"/>
	<path class="st0_data-storage-1-5" d="M86.7,225.6c-0.7-0.6-1.2-1.2-1.8-1.7c-2.5-2.6-6.4-3.4-9.7-1.9c-3.4,1.5-5.4,4.9-5.1,8.6&#xA;&#9;&#9;c0.1,0.9-0.2,1.1-1,1.4c-7,1.8-11.3,8.9-9.5,16c1.5,5.9,6.8,10,12.9,9.9c17.8,0,35.7,0,53.5,0c0.7,0,1.4,0,2-0.1&#xA;&#9;&#9;c6.5-1,10.9-7,9.9-13.5c-0.8-5-4.7-9-9.7-9.9c-1.3-0.2-2.7-0.2-4-0.3c2.1-9.9-3.8-19.8-13.5-22.6c-4.2-1.2-8.7-0.9-12.7,0.8&#xA;&#9;&#9;C92.1,214.7,88.5,219.4,86.7,225.6z"/>
	<path class="st3_data-storage-1-5" d="M94.3,258.5H72.5c-7.6,0.1-13.9-5.9-14-13.5c0-0.3,0-0.7,0-1c0.3-6.1,4.5-11.2,10.4-12.7&#xA;&#9;&#9;c0.5-0.1,0.5-0.1,0.5-0.6c-0.4-3.9,1.9-7.7,5.5-9.2c3.6-1.6,7.8-0.7,10.5,2.1l1,0.9c1.7-5.8,5.9-10.5,11.4-12.9&#xA;&#9;&#9;c4.1-1.8,8.8-2.1,13.1-0.8c10.7,2.9,15.5,13.6,14.1,22.6h0.5c0.9,0,1.9,0.1,2.8,0.2c6.8,1.1,11.4,7.6,10.3,14.4&#xA;&#9;&#9;c-0.9,5.3-5.1,9.5-10.5,10.3c-0.7,0.1-1.4,0.1-2.2,0.1L94.3,258.5z M78.6,221.9c-1.1,0-2.1,0.2-3.1,0.7c-3.1,1.3-5,4.5-4.7,7.9&#xA;&#9;&#9;c0.2,0.9-0.4,1.8-1.3,2c-0.1,0-0.1,0-0.2,0c-6.7,1.7-10.7,8.4-9.1,15.1c1.4,5.6,6.5,9.5,12.3,9.4c17.8,0,35.7,0,53.5,0&#xA;&#9;&#9;c0.7,0,1.3,0,2-0.1c6.1-0.8,10.3-6.5,9.5-12.5c-0.7-4.9-4.4-8.7-9.3-9.5c-0.9-0.1-1.8-0.2-2.7-0.2l-1.3-0.1c-0.2,0-0.4-0.1-0.5-0.3&#xA;&#9;&#9;c-0.1-0.2-0.2-0.4-0.1-0.6c2.2-11.3-5.1-19.7-13-21.8c-4-1.2-8.3-0.9-12.2,0.8c-5.6,2.4-9.2,6.6-11,13c-0.1,0.4-0.5,0.6-0.9,0.5&#xA;&#9;&#9;c-0.1,0-0.2-0.1-0.3-0.2l-0.6-0.6c-0.4-0.4-0.8-0.8-1.2-1.1C82.9,222.8,80.8,221.9,78.6,221.9z"/>
	<path class="st0_data-storage-1-5" d="M405.2,268.9l-1.2-1.2c-1.7-1.8-4.4-2.4-6.7-1.4c-2.3,1-3.7,3.4-3.5,5.9c0,0.6-0.1,0.8-0.7,0.9&#xA;&#9;&#9;c-4.9,1.2-7.8,6.2-6.6,11.1c1,4.1,4.7,6.9,8.9,6.9h37.1c0.5,0,0.9,0,1.4-0.1c4.5-0.7,7.6-4.8,6.9-9.3c-0.5-3.5-3.2-6.3-6.8-6.9&#xA;&#9;&#9;c-0.9-0.1-1.8-0.1-2.8-0.2c1.5-6.9-2.6-13.7-9.4-15.7c-2.9-0.8-6-0.6-8.8,0.5C409.2,261.3,406.2,264.7,405.2,268.9z"/>
	<path class="st3_data-storage-1-5" d="M411,291.9h-15.6c-5.4,0.1-9.8-4.2-9.9-9.6c0-0.2,0-0.5,0-0.7c0.2-4.3,3.2-8,7.4-9c0.1,0,0.1,0,0.2-0.1&#xA;&#9;&#9;c0,0,0-0.1,0-0.1c-0.2-2.8,1.3-5.5,3.9-6.6c2.6-1.1,5.6-0.5,7.5,1.5l0.4,0.4c1.3-3.9,4.2-7.1,8-8.7c2.9-1.2,6.2-1.4,9.2-0.6&#xA;&#9;&#9;c6.8,2,11.1,8.7,10,15.7h0.1c0.7,0,1.3,0.1,2,0.1c4.8,0.8,8.1,5.4,7.3,10.2c-0.6,3.8-3.6,6.8-7.5,7.3c-0.5,0.1-1,0.1-1.5,0.1H411z&#xA;&#9;&#9; M399.6,266.6c-0.7,0-1.4,0.1-2.1,0.4c-2.1,0.9-3.3,3-3.1,5.2c0.1,0.8-0.4,1.5-1.2,1.7c0,0,0,0-0.1,0c-4.5,1.1-7.2,5.7-6.1,10.2&#xA;&#9;&#9;c1,3.8,4.4,6.4,8.3,6.3h37.1c0.4,0,0.9,0,1.3-0.1c4.1-0.6,6.9-4.5,6.3-8.6c-0.5-3.2-3-5.7-6.1-6.2c-0.6-0.1-1.2-0.1-1.8-0.1h-0.9&#xA;&#9;&#9;c-0.2,0-0.4-0.1-0.5-0.3c-0.1-0.2-0.2-0.4-0.1-0.6c1.4-6.5-2.4-13-8.9-14.9c-2.7-0.8-5.7-0.6-8.3,0.5c-3.8,1.6-6.2,4.5-7.5,8.9&#xA;&#9;&#9;c-0.1,0.2-0.3,0.4-0.5,0.5c-0.2,0.1-0.5,0-0.7-0.2l-0.4-0.4l-0.8-0.8C402.5,267.2,401.1,266.6,399.6,266.6z"/>
</g>
<g id="Icons_data-storage-1-5">
	<path class="st3_data-storage-1-5" d="M235.3,156.5h-21.1c-2.6,0-4.7-2.1-4.7-4.7l0,0v-12c0-2.6,2.1-4.7,4.7-4.7h21.1c2.6,0,4.7,2.1,4.7,4.7v12&#xA;&#9;&#9;C240,154.4,237.9,156.5,235.3,156.5L235.3,156.5z M214.2,136.5c-1.8,0-3.3,1.5-3.3,3.3c0,0,0,0,0,0v12c0,1.8,1.5,3.3,3.3,3.3h21.1&#xA;&#9;&#9;c1.8,0,3.3-1.5,3.3-3.3v-12c0-1.8-1.5-3.3-3.3-3.3H214.2z"/>
	<path class="st3_data-storage-1-5" d="M219.9,152.6c-0.1,0-0.3,0-0.4-0.1c-0.2-0.1-0.3-0.3-0.3-0.6v-12.2c0-0.2,0.1-0.5,0.3-0.6&#xA;&#9;&#9;c0.2-0.1,0.5-0.1,0.7,0l12.6,6.1c0.2,0.1,0.4,0.4,0.4,0.6c0,0.3-0.1,0.5-0.4,0.6l-12.6,6.1C220.1,152.6,220,152.6,219.9,152.6z&#xA;&#9;&#9; M220.6,140.8v10l10.2-5L220.6,140.8z"/>
	<path class="st3_data-storage-1-5" d="M434.4,199.5h-23.2c-0.4,0-0.7-0.3-0.7-0.7c0,0,0,0,0,0v-16.2c0-0.4,0.3-0.7,0.7-0.7l0,0h23.2&#xA;&#9;&#9;c0.4,0,0.7,0.3,0.7,0.7v16.2C435.1,199.1,434.8,199.5,434.4,199.5L434.4,199.5z M411.9,198.1h21.8v-14.8h-21.8L411.9,198.1z"/>
	<path class="st3_data-storage-1-5" d="M411.2,199.5c-0.2,0-0.3,0-0.4-0.1c-0.3-0.2-0.4-0.7-0.2-1c0,0,0,0,0,0l9.2-12.3c0.1-0.2,0.3-0.3,0.5-0.3&#xA;&#9;&#9;c0.2,0,0.4,0.1,0.5,0.2l7.2,8.5c0.3,0.3,0.2,0.7-0.1,1c0,0,0,0,0,0c-0.3,0.3-0.7,0.2-1-0.1l-6.6-7.8l-8.6,11.6&#xA;&#9;&#9;C411.6,199.4,411.4,199.5,411.2,199.5z"/>
	<path class="st3_data-storage-1-5" d="M425.6,193.3c-0.1,0-0.3,0-0.4-0.1c-0.3-0.2-0.4-0.7-0.2-1c0,0,0,0,0,0l3.7-5.4c0.1-0.2,0.3-0.3,0.5-0.3&#xA;&#9;&#9;c0.2,0,0.4,0.1,0.6,0.2l5.1,5.4c0.3,0.3,0.3,0.7,0,1s-0.7,0.3-1,0l-4.5-4.7l-3.2,4.7C426,193.2,425.8,193.3,425.6,193.3z"/>
	<path class="st3_data-storage-1-5" d="M426,187.9c-1.2,0-2.1-1-2.1-2.1c0-1.2,1-2.1,2.1-2.1c1.2,0,2.1,1,2.1,2.1C428.1,187,427.2,187.9,426,187.9&#xA;&#9;&#9;C426,187.9,426,187.9,426,187.9z M426,185.1c-0.4,0-0.7,0.3-0.7,0.7c0,0.4,0.3,0.7,0.7,0.7s0.7-0.3,0.7-0.7&#xA;&#9;&#9;C426.7,185.4,426.4,185.1,426,185.1z"/>
	<path class="st3_data-storage-1-5" d="M347.5,116.4H320c-0.4,0-0.7-0.3-0.7-0.7v0v-15.1c0-0.4,0.3-0.7,0.7-0.7l0,0h27.5c0.4,0,0.7,0.3,0.7,0.7v0&#xA;&#9;&#9;v15.1C348.2,116.1,347.9,116.4,347.5,116.4C347.5,116.4,347.5,116.4,347.5,116.4z M320.7,115h26.1v-13.7h-26.1V115z"/>
	<path class="st3_data-storage-1-5" d="M333.7,110.7c-0.1,0-0.3,0-0.4-0.1l-13.7-9.4c-0.3-0.2-0.5-0.6-0.3-1c0.2-0.3,0.6-0.5,1-0.3c0,0,0.1,0,0.1,0.1&#xA;&#9;&#9;l13.4,9.2L347,100c0.3-0.2,0.8-0.1,1,0.2c0.2,0.3,0.1,0.8-0.2,1l-13.7,9.4C334,110.7,333.9,110.7,333.7,110.7z"/>
	<path class="st3_data-storage-1-5" d="M320,116.4c-0.2,0-0.4-0.1-0.6-0.3c-0.2-0.3-0.2-0.7,0.1-1c0,0,0,0,0,0l11-7.6c0.3-0.2,0.8-0.1,1,0.3&#xA;&#9;&#9;c0.2,0.3,0.1,0.7-0.2,0.9l-11,7.6C320.3,116.4,320.1,116.4,320,116.4z"/>
	<path class="st3_data-storage-1-5" d="M347.5,116.4c-0.1,0-0.3,0-0.4-0.1l-11-7.6c-0.3-0.2-0.3-0.7-0.1-1c0.2-0.3,0.6-0.3,0.9-0.2l11,7.6&#xA;&#9;&#9;c0.3,0.2,0.4,0.7,0.2,1c0,0,0,0,0,0C347.9,116.3,347.7,116.4,347.5,116.4z"/>
	<path class="st3_data-storage-1-5" d="M120,131.7h-0.2c-1.4,0-2.7-0.6-3.6-1.6c-1-1-1.5-2.4-1.4-3.8c0.1-2.9,2.6-5.1,5.4-4.9c0.4,0,0.9,0.1,1.3,0.2&#xA;&#9;&#9;v-11c-0.1-0.6,0.3-1.2,0.9-1.4l11.2-3.7l3.8-1.3c0.1,0,0.2,0,0.3-0.1c0.2,0,0.4,0,0.6,0.1c0.2,0.1,0.3,0.3,0.3,0.5&#xA;&#9;&#9;c0,0.3,0,0.4,0,0.5v4.5c0,4.8,0,9.6,0,14.4c0,1.7-0.8,3.3-2.2,4.3c-1.4,1-3.1,1.2-4.7,0.6c-1.3-0.5-2.4-1.4-3-2.7&#xA;&#9;&#9;c-1.2-2.6-0.1-5.7,2.5-6.9c1.2-0.5,2.5-0.6,3.7-0.3v-10.5l-9.8,3.3v6.8c0,2.6,0,5.1,0,7.7c0,1.4-0.6,2.7-1.6,3.6&#xA;&#9;&#9;C122.7,131.2,121.4,131.7,120,131.7z M120,122.7c-0.8,0-1.5,0.2-2.1,0.7c-1,0.7-1.6,1.7-1.7,2.9c0,1,0.3,2,1,2.8&#xA;&#9;&#9;c0.7,0.7,1.6,1.2,2.6,1.2c1,0,2.1-0.3,2.8-1.1c0.7-0.7,1.1-1.6,1.1-2.6c0-2.5,0-5.1,0-7.6v-7.3c0-0.3,0.2-0.6,0.5-0.7l11.2-3.7&#xA;&#9;&#9;c0.2-0.1,0.4,0,0.6,0.1c0.2,0.1,0.3,0.3,0.3,0.6v12.4c0,0.2-0.1,0.5-0.3,0.6c-0.2,0.1-0.4,0.1-0.7,0.1l-0.6-0.2&#xA;&#9;&#9;c-0.9-0.4-2-0.4-2.9,0.1c-1.9,0.9-2.7,3.1-1.9,5c0.4,0.9,1.2,1.7,2.2,2c1.1,0.4,2.4,0.2,3.4-0.5c1-0.7,1.6-1.9,1.6-3.2&#xA;&#9;&#9;c0-4.8,0-9.6,0-14.4v-4l-3.2,1.1l-11,3.7c0,0,0,0,0,0.1v11.3c0,0.2,0,0.3,0,0.5v0.3c0,0.2-0.1,0.4-0.3,0.6&#xA;&#9;&#9;c-0.2,0.1-0.4,0.1-0.6,0.1l-0.3-0.1l-0.4-0.2C120.9,122.8,120.4,122.8,120,122.7L120,122.7z"/>
	<path class="st3_data-storage-1-5" d="M271.3,83.2h1.3c0,0,0.1,0,0.1,0c2,0.1,3.9,0.8,5.5,1.9c3.7,2.4,5.7,6.6,5.2,11c-0.2,2.6-1.3,5-3.2,6.8&#xA;&#9;&#9;c-2.5,2.6-6,3.9-9.6,3.5c-1.9-0.2-3.6-0.8-5.2-1.9c-2.8-1.8-4.6-4.7-5.1-8c-0.1-0.3-0.1-0.7-0.1-1v-1.3c0-0.1,0-0.2,0-0.2&#xA;&#9;&#9;c0.1-0.5,0.1-1,0.2-1.5c1-4.8,4.9-8.4,9.7-9.2L271.3,83.2z M280.5,101.3c1.3-1.7,2.1-3.8,2.2-6h-4.6c-0.1,0.8-0.1,1.6-0.2,2.4&#xA;&#9;&#9;s-0.3,1.6-0.4,2.4L280.5,101.3z M261.3,95.3c0.1,2.2,0.9,4.3,2.2,6l3.1-1.2c-0.4-1.6-0.6-3.2-0.6-4.8L261.3,95.3z M282.7,94.4&#xA;&#9;&#9;c0.1-1.7-1.1-5.1-2.2-6l-3.1,1.2c0.4,1.6,0.6,3.2,0.6,4.8H282.7z M266.6,89.6l-3.1-1.2c-1.1,1.2-2.4,4.6-2.1,6h4.6&#xA;&#9;&#9;C266,92.7,266.2,91.1,266.6,89.6L266.6,89.6z M272.5,99.5c0.7,0.1,1.4,0.1,2,0.2s1.3,0.2,2,0.3c0-0.1,0-0.1,0-0.2&#xA;&#9;&#9;c0.3-1.4,0.5-2.8,0.6-4.2c0-0.2,0-0.2-0.2-0.2h-4.4L272.5,99.5z M266.9,95.3c0,1.6,0.2,3.1,0.6,4.6l4-0.5v-4.1L266.9,95.3z&#xA;&#9;&#9; M277.1,94.4c0-1.5-0.2-3.1-0.6-4.6l-4,0.4v4.1L277.1,94.4z M267.5,89.8c-0.4,1.5-0.6,3-0.6,4.6h4.6v-4.1L267.5,89.8z M276.2,88.8&#xA;&#9;&#9;c-0.3-1-0.8-1.9-1.4-2.8c-0.4-0.6-0.9-1.1-1.6-1.5c-0.2-0.1-0.5-0.2-0.8-0.3v5.1C273.7,89.2,275,89.1,276.2,88.8L276.2,88.8z&#xA;&#9;&#9; M272.5,100.4v5c0.6-0.1,1.1-0.4,1.5-0.8c0.9-0.8,1.6-1.9,2-3c0.1-0.3,0.2-0.5,0.3-0.8C275,100.5,273.7,100.4,272.5,100.4&#xA;&#9;&#9;L272.5,100.4z M271.5,105.4v-5.1c-1.3,0-2.5,0.2-3.8,0.4c0.2,0.5,0.4,1.1,0.6,1.6c0.4,0.9,1,1.7,1.7,2.3&#xA;&#9;&#9;C270.5,105.1,271,105.4,271.5,105.4L271.5,105.4z M267.7,88.8c1.2,0.3,2.5,0.4,3.8,0.4v-5.1c-0.4,0.1-0.7,0.2-1.1,0.5&#xA;&#9;&#9;c-0.8,0.6-1.4,1.3-1.8,2.1C268.3,87.4,268,88.1,267.7,88.8z M279.9,102.1c-0.9-0.4-1.8-0.8-2.7-1c-0.5,1.5-1.2,2.9-2.3,4.1&#xA;&#9;&#9;C276.8,104.6,278.5,103.6,279.9,102.1z M269.1,84.6c-1.9,0.5-3.7,1.6-5,3.1l2.7,1c0.3-0.8,0.6-1.5,1-2.2&#xA;&#9;&#9;C268.1,85.8,268.6,85.1,269.1,84.6z M264.1,102.1c1.3,1.5,3.1,2.5,5,3.1c-1.1-1.2-1.8-2.6-2.3-4.1&#xA;&#9;&#9;C265.9,101.3,265,101.6,264.1,102.1L264.1,102.1z M274.9,84.6c0.5,0.6,1,1.2,1.3,1.9c0.3,0.7,0.6,1.4,1,2.1c0.9-0.2,1.8-0.6,2.7-1&#xA;&#9;&#9;C278.6,86.1,276.8,85.1,274.9,84.6z"/>
	<path class="st3_data-storage-1-5" d="M80.3,207.5c-0.8,0-1.4-0.6-1.4-1.4c0,0,0,0,0,0v-3.1c-1.4-0.8-2.4-2.2-2.4-3.9v-6.5c0-2.4,2-4.4,4.4-4.4h14.8&#xA;&#9;&#9;c2.4,0,4.4,2,4.4,4.4v6.5c0,2.4-2,4.4-4.4,4.4H83.7l-2.2,3.4C81.3,207.2,80.8,207.5,80.3,207.5z M80.9,189.5c-1.7,0-3,1.3-3,3v6.5&#xA;&#9;&#9;c0,1.2,0.8,2.4,1.9,2.8c0.3,0.1,0.4,0.4,0.4,0.7v3.5l2.4-3.7c0.1-0.2,0.4-0.3,0.6-0.3h12.4c1.7,0,3-1.3,3-3v-6.5c0-1.7-1.3-3-3-3&#xA;&#9;&#9;L80.9,189.5z"/>
</g>
</svg>