<svg version="1.1" id="Layer_1" xmlns="http://www.w3.org/2000/svg" xmlns:xlink="http://www.w3.org/1999/xlink" x="0px" y="0px" viewBox="0 0 500 500" style="width: 188px;" xml:space="preserve" data-imageid="cleaning-computer-80" imageName="Cleaning Computer" class="illustrations_image">
<style type="text/css">
	.st0_cleaning-computer-80{fill:#D1D3D4;}
	.st1_cleaning-computer-80{fill:#FFFFFF;}
	.st2_cleaning-computer-80{fill:#231F20;}
	.st3_cleaning-computer-80{fill:#68E1FD;}
</style>
<g id="Ground_cleaning-computer-80">
	<path class="st0_cleaning-computer-80" d="M431,359.8H59c-0.4,0-0.7-0.3-0.7-0.7c0-0.4,0.3-0.7,0.7-0.7h372c0.4,0,0.7,0.3,0.7,0.7&#xA;&#9;&#9;C431.7,359.5,431.4,359.8,431,359.8z"/>
</g>
<g id="Monitor_cleaning-computer-80">
	<path class="st1_cleaning-computer-80" d="M398.5,129.7v187.4c0,7.2-5.9,13.1-13.1,13.1c0,0,0,0,0,0H109.2c-7.2,0-13.1-5.9-13.1-13.1c0,0,0,0,0,0V129.7&#xA;&#9;&#9;c0-7.2,5.9-13.1,13.1-13.1c0,0,0,0,0,0h276.2C392.7,116.6,398.5,122.5,398.5,129.7z"/>
	<path class="st2_cleaning-computer-80" d="M385.4,330.9H109.2c-7.6,0-13.8-6.2-13.8-13.8V129.7c0-7.6,6.2-13.7,13.8-13.7h276.2c7.6,0,13.8,6.2,13.8,13.8&#xA;&#9;&#9;v187.3C399.2,324.7,393,330.9,385.4,330.9z M109.2,117.2c-6.9,0-12.5,5.6-12.5,12.5v187.4c0,6.9,5.6,12.5,12.5,12.5h276.2&#xA;&#9;&#9;c6.9,0,12.5-5.6,12.5-12.5V129.7c0-6.9-5.6-12.5-12.5-12.5H109.2z"/>
	<path class="st2_cleaning-computer-80" d="M398.5,129.7v166.4H96.1V129.7c0-7.2,5.9-13.1,13.1-13.1c0,0,0,0,0,0h276.2&#xA;&#9;&#9;C392.7,116.6,398.5,122.5,398.5,129.7z"/>
	<rect x="108.5" y="132.2" class="st1_cleaning-computer-80" width="274" height="151.6"/>
	<path class="st2_cleaning-computer-80" d="M382.5,284.4h-274c-0.3,0-0.6-0.3-0.6-0.6c0,0,0,0,0,0V132.2c0-0.4,0.3-0.6,0.6-0.6h274c0.4,0,0.6,0.3,0.6,0.6&#xA;&#9;&#9;v0v151.6C383.2,284.1,382.9,284.4,382.5,284.4L382.5,284.4z M109.1,283.1h272.8V132.8H109.1L109.1,283.1z"/>
	<path class="st0_cleaning-computer-80" d="M247.3,320.1c-3.9,0-7-3.1-7-7s3.1-7,7-7s7,3.1,7,7S251.2,320.1,247.3,320.1z M247.3,307.6&#xA;&#9;&#9;c-3.1,0-5.6,2.5-5.6,5.6c0,3.1,2.5,5.6,5.6,5.6c3.1,0,5.6-2.5,5.6-5.6l0,0C252.9,310.1,250.4,307.6,247.3,307.6z"/>
	<path class="st1_cleaning-computer-80" d="M283,354c-2.9-4.3-3.4-23.8-3.4-23.8H215c0,0-0.5,19.5-3.4,23.8s-14.3,11.2-14.3,13.7s1.7,3.4,9.9,3.4h80.2&#xA;&#9;&#9;c8.2,0,9.9-0.9,9.9-3.4S286,358.3,283,354z"/>
	<path class="st2_cleaning-computer-80" d="M287.4,371.7h-80.2c-7.3,0-10.6-0.6-10.6-4c0-1.5,2.6-3.7,6.9-7.1c3.1-2.5,6.2-5,7.5-6.9&#xA;&#9;&#9;c2.8-4.1,3.3-23.2,3.3-23.4c0-0.3,0.3-0.6,0.6-0.6h64.7c0.3,0,0.6,0.3,0.6,0.6c0,0.2,0.5,19.4,3.3,23.4c1.3,1.9,4.5,4.5,7.5,6.9&#xA;&#9;&#9;c4.3,3.4,6.9,5.6,6.9,7.1C298,371.1,294.7,371.7,287.4,371.7z M215.6,330.9c-0.1,3.4-0.8,19.5-3.5,23.5c-1.4,2.1-4.7,4.7-7.8,7.2&#xA;&#9;&#9;c-2.7,2.2-6.4,5.1-6.4,6.1c0,1.6,0.6,2.7,9.3,2.7h80.2c8.7,0,9.3-1.1,9.3-2.7c0-1-3.7-4-6.4-6.1c-3.1-2.5-6.4-5.1-7.8-7.2l0,0&#xA;&#9;&#9;c-2.7-4-3.4-20.1-3.5-23.5H215.6z"/>
	<path class="st0_cleaning-computer-80" d="M278.5,351.4h-62.4c-0.4,0-0.7-0.3-0.7-0.7c0-0.4,0.3-0.7,0.7-0.7c0,0,0,0,0,0h62.4c0.4,0,0.7,0.3,0.7,0.7&#xA;&#9;&#9;S278.9,351.3,278.5,351.4C278.5,351.4,278.5,351.4,278.5,351.4z"/>
	<path class="st0_cleaning-computer-80" d="M216.1,266.4c-0.2,0-0.4-0.1-0.5-0.2c-0.3-0.3-0.3-0.7,0-1c0,0,0,0,0,0l128.6-119.2c0.3-0.2,0.8-0.1,1,0.2&#xA;&#9;&#9;c0.2,0.2,0.2,0.6,0,0.8L216.6,266.2C216.5,266.3,216.3,266.4,216.1,266.4z"/>
	<path class="st0_cleaning-computer-80" d="M136.6,258c-0.2,0-0.4-0.1-0.5-0.2c-0.3-0.3-0.2-0.7,0.1-1c0,0,0,0,0,0l79.5-67.6c0.3-0.2,0.7-0.2,1,0.1&#xA;&#9;&#9;c0.2,0.3,0.2,0.7-0.1,0.9L137,257.8C136.9,257.9,136.7,258,136.6,258z"/>
	<path class="st0_cleaning-computer-80" d="M307.2,258c-0.4,0-0.7-0.3-0.7-0.7c0-0.2,0.1-0.4,0.2-0.5l44-37.3c0.3-0.2,0.7-0.2,1,0.1&#xA;&#9;&#9;c0.2,0.3,0.2,0.7-0.1,0.9l-44,37.3C307.5,258,307.4,258,307.2,258z"/>
	<path class="st0_cleaning-computer-80" d="M148,187.6c-0.2,0-0.4-0.1-0.5-0.3c-0.3-0.3-0.2-0.7,0.1-1c0,0,0,0,0,0l49.3-40.4c0.3-0.2,0.7-0.2,1,0.1&#xA;&#9;&#9;c0,0,0,0,0,0c0.3,0.3,0.2,0.7-0.1,1l-49.3,40.4C148.3,187.5,148.2,187.6,148,187.6z"/>
</g>
<g id="Character_cleaning-computer-80">
	<path class="st1_cleaning-computer-80" d="M284,190.8c0,0-8-9.6-11.1-11.1c-5.9-2.9-16.6,4.9-16,5.9s9.5,0.1,10.7,0.1s5,3.8,5,3.8s4.4,5.6,6.3,8.8"/>
	<path class="st2_cleaning-computer-80" d="M278.9,199c-0.2,0-0.5-0.1-0.6-0.3c-1.9-3-6.2-8.6-6.3-8.7c-1.9-1.9-4-3.5-4.5-3.6c-0.3,0-0.9,0-1.7,0.1&#xA;&#9;&#9;c-6.9,0.4-9,0.3-9.6-0.5c-0.4-0.7,0.2-1.4,0.4-1.6c2.1-2.4,11.1-7.9,16.5-5.3c3.1,1.5,11,10.9,11.3,11.3c0.3,0.3,0.3,0.7,0,1&#xA;&#9;&#9;s-0.7,0.3-1,0c0,0-0.1-0.1-0.1-0.1c-2.2-2.6-8.5-9.8-10.8-10.9s-5.4-0.4-7.6,0.5c-2.7,1-5.1,2.5-7.2,4.5c2.7,0.1,5.3,0.1,8-0.2&#xA;&#9;&#9;c0.9,0,1.5-0.1,1.8-0.1c1.4,0,4.3,2.8,5.5,4c0.2,0.3,4.5,5.8,6.4,8.9c0.2,0.3,0.1,0.8-0.2,1c0,0,0,0,0,0&#xA;&#9;&#9;C279.2,199,279.1,199,278.9,199z"/>
	<path class="st1_cleaning-computer-80" d="M251.3,178.3l1.5-2.2l0,0l20.1,13.8c0.5,0.3,0.6,0.9,0.3,1.4l-0.4,0.6c-0.3,0.5-0.9,0.6-1.4,0.3L251.3,178.3&#xA;&#9;&#9;L251.3,178.3z"/>
	<path class="st2_cleaning-computer-80" d="M271.8,192.9c-0.4,0-0.8-0.1-1.1-0.4l-19.7-13.6c-0.3-0.2-0.4-0.7-0.2-1l1.5-2.2c0.1-0.2,0.3-0.3,0.4-0.3&#xA;&#9;&#9;c0.2,0,0.4,0,0.5,0.1l19.8,13.6c0.9,0.6,1.2,1.8,0.6,2.8c-0.3,0.5-0.8,0.8-1.4,0.9C272,192.8,271.9,192.9,271.8,192.9z&#xA;&#9;&#9; M252.2,178.2l19.2,13.2c0.1,0.1,0.3,0.1,0.5,0.1c0.2,0,0.3-0.1,0.4-0.3c0.2-0.3,0.1-0.7-0.2-0.9c0,0,0,0,0,0L253,177.1&#xA;&#9;&#9;L252.2,178.2z"/>
	<path class="st1_cleaning-computer-80" d="M250.6,167.8l0.1,2c-0.6-3-2.3-5.6-4.8-7.2l-0.3,1.5c-0.9-1.1-1.5-2.3-1.8-3.7c-0.1-0.8-0.4-1.8-1.2-1.8&#xA;&#9;&#9;c-1,0-1.5,1.7-2.4,1.3c-0.2-0.1-0.4-0.4-0.5-0.6c-0.6-1.3-1.2-2.5-1.7-3.9c-1.3,0.3-2.5,0.9-3.5,1.7c-1.1-1.4-3-1.8-4.6-1&#xA;&#9;&#9;c-0.5,0.2-0.8,0.7-0.9,1.3c0,0.2,0.1,0.4,0.1,0.7c-0.1,0.6-0.5,1-1.1,1.1c-0.5,0.2-1.1,0.2-1.6,0.4c-1.4,0.6-2.1,2.2-1.6,3.6&#xA;&#9;&#9;c0.5,1.4,1.7,2.4,3.1,2.7c-0.3,1.7,1.2,3.2,2.9,3.7c0.6,0.1,1.1,0.3,1.7,0.6c0.7,0.5,1.4,1.1,1.9,1.8c1.4,1.4,3.4,2,5.4,1.6&#xA;&#9;&#9;c0,1.1,0.6,2.1,1.6,2.7c1,0.5,2.2,0.5,3.1,0c0.4,1.1,1.5,1.6,2.6,1.3c0.2-0.1,0.4-0.2,0.6-0.3c-0.9,0.8,2,1.7,2.5,1.6&#xA;&#9;&#9;c1.3-0.5,2.3-1.5,3-2.8C254.6,173.3,252.6,169.5,250.6,167.8z"/>
	<path class="st2_cleaning-computer-80" d="M250.2,179.4c-1.1-0.1-2.2-0.5-3-1.2c-0.5,0.1-1,0.1-1.4-0.1c-0.6-0.2-1.1-0.5-1.5-1c-2,0.7-4.2-0.4-4.9-2.4&#xA;&#9;&#9;c-0.1-0.2-0.1-0.3-0.1-0.5c-2,0.2-3.9-0.5-5.3-1.9c-0.2-0.2-0.4-0.4-0.6-0.6c-0.3-0.4-0.7-0.8-1.2-1.1c-0.3-0.2-0.7-0.3-1-0.4&#xA;&#9;&#9;l-0.5-0.2c-1.7-0.5-3.4-2-3.4-3.9c-1.4-0.5-2.5-1.6-3-3c-0.5-1.8,0.4-3.7,2.1-4.4c0.3-0.1,0.7-0.2,1-0.2c0.2,0,0.5-0.1,0.7-0.1&#xA;&#9;&#9;c0.3-0.1,0.6-0.3,0.6-0.5c0-0.1,0-0.1,0-0.2c0-0.1-0.1-0.3-0.1-0.4c0-0.8,0.5-1.5,1.2-1.9c1.6-0.9,3.6-0.6,5,0.6&#xA;&#9;&#9;c1-0.6,2.1-1.1,3.2-1.4c0.3-0.1,0.7,0.1,0.8,0.4c0.5,1.3,1,2.6,1.6,3.8c0,0.1,0.1,0.2,0.2,0.3c0.2-0.1,0.3-0.3,0.4-0.4&#xA;&#9;&#9;c0.4-0.5,1-0.9,1.7-0.9c1.4,0,1.7,1.7,1.8,2.4c0.1,0.7,0.4,1.4,0.7,2c0.1-0.2,0.2-0.3,0.4-0.3c0.2-0.1,0.5-0.1,0.7,0.1&#xA;&#9;&#9;c1.9,1.3,3.4,3,4.3,5.1c0.2,0,0.3,0.1,0.5,0.2c2,1.9,4.3,6,2.7,9c-0.6,1.1-2.1,2.8-3.4,3.1C250.3,179.4,250.3,179.4,250.2,179.4z&#xA;&#9;&#9; M248.4,177.4c0.5,0.3,1.1,0.5,1.7,0.6l0,0c1-0.5,1.9-1.3,2.5-2.4c0.9-1.6,0.1-4-1.1-5.7c0,0.4-0.4,0.7-0.8,0.6&#xA;&#9;&#9;c-0.3,0-0.6-0.2-0.6-0.5c-0.5-2.4-1.8-4.6-3.6-6.1l-0.1,0.4c-0.1,0.4-0.4,0.6-0.8,0.6c-0.2,0-0.3-0.1-0.4-0.2c-1-1.1-1.6-2.5-1.9-4&#xA;&#9;&#9;c-0.2-1.2-0.5-1.2-0.5-1.2s-0.4,0.3-0.7,0.5c-0.4,0.4-1.1,1.1-2,0.7c-0.4-0.2-0.7-0.6-0.9-1c-0.5-1.1-1-2.2-1.5-3.3&#xA;&#9;&#9;c-1,0.3-1.9,0.8-2.7,1.4c-0.2,0.1-0.3,0.2-0.5,0.1c-0.2,0-0.4-0.1-0.5-0.3c-0.9-1.1-2.4-1.4-3.6-0.8c-0.3,0.2-0.5,0.4-0.5,0.6&#xA;&#9;&#9;c0,0.1,0,0.1,0,0.2c0,0.2,0.1,0.3,0.1,0.5c-0.1,0.9-0.7,1.6-1.6,1.8c-0.3,0.1-0.6,0.1-0.9,0.2c-0.3,0-0.5,0.1-0.7,0.2&#xA;&#9;&#9;c-1,0.5-1.5,1.6-1.2,2.7c0.4,1.1,1.4,2,2.6,2.2c0.4,0.1,0.6,0.4,0.5,0.8c-0.2,1.3,1,2.5,2.4,2.9l0.5,0.1c1.2,0.2,2.2,0.9,2.9,1.9&#xA;&#9;&#9;l0.5,0.6c1.3,1.2,3,1.7,4.8,1.4c0.2,0,0.4,0,0.6,0.1c0.2,0.1,0.3,0.3,0.3,0.6c0,0.9,0.5,1.7,1.2,2.1c0.8,0.4,1.7,0.4,2.4,0&#xA;&#9;&#9;c0.2-0.1,0.4-0.1,0.6,0c0.2,0.1,0.3,0.3,0.4,0.5c0.1,0.4,0.5,0.7,0.9,0.8c0.4,0.1,0.8,0.1,1.2-0.2c0.3-0.3,0.7-0.2,1,0.1&#xA;&#9;&#9;C248.5,176.8,248.5,177.1,248.4,177.4L248.4,177.4z"/>
	<path class="st1_cleaning-computer-80" d="M274,189.2c0,0-11.5,1.3-11.6-0.4s9.4-3.1,9.4-3.1"/>
	<path class="st2_cleaning-computer-80" d="M266.7,190.4c-2.1,0-3.9-0.2-4.5-0.7c-0.3-0.2-0.4-0.5-0.4-0.8c-0.1-1.6,3.2-2.8,10-3.8&#xA;&#9;&#9;c0.4-0.1,0.7,0.2,0.8,0.6c0.1,0.4-0.2,0.7-0.6,0.8c-4,0.6-7.8,1.6-8.6,2.3c1.2,0.5,6.3,0.3,10.7-0.2c0.4,0,0.7,0.2,0.8,0.6&#xA;&#9;&#9;c0,0.4-0.2,0.7-0.6,0.8C271.7,190.2,269.2,190.3,266.7,190.4z"/>
	<path class="st1_cleaning-computer-80" d="M413.7,252.6c0,0,17.6,8.3,19,10.5s1.4,12.5-1.8,10.7c-3.8-2.2-21.4-12.9-21.4-12.9L413.7,252.6z"/>
	<path class="st2_cleaning-computer-80" d="M431.7,274.6c-0.4,0-0.7-0.1-1-0.3c-3.8-2.2-21.2-12.8-21.4-12.9c-0.3-0.2-0.4-0.6-0.3-0.9l4.1-8.3&#xA;&#9;&#9;c0.2-0.3,0.6-0.5,0.9-0.3c3,1.4,17.8,8.5,19.3,10.7c1.3,1.9,1.6,9.4-0.3,11.4C432.6,274.4,432.2,274.6,431.7,274.6z M410.5,260.6&#xA;&#9;&#9;c3,1.8,17.4,10.6,20.8,12.5c0.4,0.2,0.5,0.1,0.6,0c1.3-1.4,1.3-8.1,0.2-9.7c-1-1.4-11.4-6.7-18.1-9.9L410.5,260.6z"/>
	<path class="st1_cleaning-computer-80" d="M325.2,280.9c0,0,4.9,23.7,6.8,27.9s17.9,49.8,17.6,52.4s-3.9,13.6-3.9,13.6s10.1,5.8,15.9-10.8&#xA;&#9;&#9;c0,0-10.8-56.3-10.8-57.8v-33.4L325.2,280.9z"/>
	<path class="st2_cleaning-computer-80" d="M349.8,376.4c-1.6,0-3.1-0.4-4.5-1.1c-0.3-0.2-0.4-0.5-0.3-0.8c0-0.1,3.6-11,3.9-13.5&#xA;&#9;&#9;c0.2-2.7-15.6-47.8-17.5-52s-6.7-27.1-6.9-28.1c-0.1-0.4,0.1-0.7,0.5-0.8l25.7-8.1c0.2-0.1,0.4,0,0.6,0.1c0.2,0.1,0.3,0.3,0.3,0.6&#xA;&#9;&#9;v33.4c0.1,1.6,7.8,42.2,10.7,57.7c0,0.1,0,0.2,0,0.4c-2.2,6.3-5.3,10.2-9.2,11.6C352.1,376.2,351,376.4,349.8,376.4z M346.6,374.4&#xA;&#9;&#9;c1.9,0.8,4.1,0.8,6.1,0.1c3.4-1.3,6.2-4.8,8.3-10.6c-1.3-6.6-10.7-56.2-10.7-57.8v-32.4l-24.1,7.6c0.8,3.8,4.9,23.4,6.6,27.2&#xA;&#9;&#9;c1.9,4.2,18,49.8,17.6,52.7C350,363.5,347.3,372,346.6,374.4L346.6,374.4z"/>
	<path class="st1_cleaning-computer-80" d="M368.5,285.3c0,0,1.3,28.5,3.5,32.2s36.7,28.2,36.7,28.2l4.1-11.8c0,0-23.5-20.3-24-24.2s-5.8-31.5-5.8-31.5&#xA;&#9;&#9;L368.5,285.3z"/>
	<path class="st2_cleaning-computer-80" d="M408.7,346.3c-0.1,0-0.3,0-0.4-0.1c-3.5-2.5-34.7-24.7-36.9-28.4s-3.5-29.5-3.6-32.5c0-0.3,0.1-0.5,0.4-0.7&#xA;&#9;&#9;l14.6-7.3c0.2-0.1,0.4-0.1,0.6,0c0.2,0.1,0.3,0.3,0.4,0.5c0.2,1.1,5.4,27.7,5.8,31.6c0.3,2.7,14.7,16,23.7,23.8&#xA;&#9;&#9;c0.2,0.2,0.3,0.5,0.2,0.8l-4.1,11.8c-0.1,0.2-0.2,0.4-0.5,0.4L408.7,346.3z M369.2,285.7c0.4,8.2,1.7,28.5,3.4,31.4&#xA;&#9;&#9;s25.7,20.2,35.7,27.4L412,334c-3.7-3.2-23.4-20.4-23.8-24.3c-0.4-3.5-4.7-25.8-5.6-30.6L369.2,285.7z"/>
	<path class="st2_cleaning-computer-80" d="M361.6,363.9c0,0,2.7,7.2,2.7,8.7s-3.7,4.8-5.4,4.6s-1.5-2.5-1.5-2.5c-0.8,2.9-2.7,5.4-5.4,6.8&#xA;&#9;&#9;c-4.5,2.4-15.6,2.4-14.9,0s9.9-11.5,9.9-11.5S354.9,373.6,361.6,363.9z"/>
	<path class="st2_cleaning-computer-80" d="M342.5,384c-2.5,0-4.7-0.4-5.6-1.1c-0.5-0.4-0.7-1-0.6-1.6c0.7-2.5,9.1-10.8,10.1-11.8&#xA;&#9;&#9;c0.2-0.2,0.5-0.3,0.8-0.1c0.3,0.1,7.6,3.2,13.9-5.9c0.2-0.3,0.6-0.4,1-0.2c0.1,0.1,0.2,0.2,0.3,0.3c0.3,0.8,2.7,7.3,2.7,8.9&#xA;&#9;&#9;c0,1.3-1.7,3-2.2,3.4s-2.5,2.1-4,1.9c-0.6-0.1-1.2-0.4-1.5-0.9c-1.1,2.2-2.8,4-5,5.1C350,383.4,346,384,342.5,384z M347.1,370.9&#xA;&#9;&#9;c-3.5,3.5-9,9.3-9.4,10.8c0,0,0.2,0.2,0.6,0.4c2.7,1,10,0.5,13.3-1.2c2.5-1.3,4.3-3.6,5-6.3c0.1-0.4,0.4-0.6,0.8-0.6&#xA;&#9;&#9;c0.4,0.1,0.6,0.4,0.6,0.8c0,0.1-0.1,1.6,0.9,1.7c1.1-0.2,2.1-0.7,2.9-1.5c0.8-0.6,1.4-1.4,1.8-2.4c-0.5-2.5-1.3-4.9-2.2-7.2&#xA;&#9;&#9;C355.6,372.9,348.9,371.5,347.1,370.9L347.1,370.9z"/>
	<path class="st3_cleaning-computer-80 targetColor" d="M336,194c0,0-36.5,17.5-37.3,16.1s-14.1-22.2-14.1-22.2l-9.3,7.3c0,0,13.5,28.2,22,31.3s38.7-11.3,38.7-11.3&#xA;&#9;&#9;V194z" style="fill: rgb(17, 139, 238);"/>
	<path class="st3_cleaning-computer-80 targetColor" d="M330.6,258.4c0,0-10.8,39.6-11.1,59.8c0,0,52.2,28.8,80.4-18.4l-30.9-61.9L330.6,258.4z" style="fill: rgb(17, 139, 238);"/>
	<path class="st3_cleaning-computer-80 targetColor" d="M333.7,194.7c0.2-1,30.5-4.7,38,1.7c10.1,8.7-2.6,41.4-2.6,41.4s-14.6,22.5-25.6,17.5s-11.9-9.4-11.9-9.4&#xA;&#9;&#9;C329.8,228.9,330.5,211.6,333.7,194.7z" style="fill: rgb(17, 139, 238);"/>
	<path class="st3_cleaning-computer-80 targetColor" d="M371.7,196.5c9.6,7.8,18.2,37,21.9,40.5c3,2.9,21.9,15.5,21.9,15.5l-4.9,10.6c0,0-20.1-7.6-27.3-15.7&#xA;&#9;&#9;c-3.9-4.4-5.3-10.2-7-13.9C371.4,223.1,371.7,196.5,371.7,196.5z" style="fill: rgb(17, 139, 238);"/>
	<path class="st2_cleaning-computer-80" d="M331,243.7c-0.4,0-0.7-0.3-0.7-0.7c0-1.2-1.2-30.6,3-45.2c0.1-0.4,0.5-0.6,0.9-0.5c0.4,0.1,0.6,0.5,0.5,0.9&#xA;&#9;&#9;l0,0c-4.1,14.4-3,44.5-2.9,44.8C331.7,243.3,331.4,243.7,331,243.7C331,243.7,331,243.7,331,243.7L331,243.7z"/>
	<path class="st1_cleaning-computer-80" d="M363.9,193.1c0,0-3,14.2-8.7,22.3s-13.6,5.1-14.1,0s3.9-23.6,3.9-23.6l-6.6,1.7c0,0-1.4,14-7.5,18.5&#xA;&#9;&#9;c-2.7,7.7,0,36.2,0,36.2s-12.6,38.1-5.6,46.6c14.1,16.8,43.9-2.7,44.9-51.8l3.8-17.8c0,0-9.2-17.2-4.8-32.1L363.9,193.1z"/>
	<path class="st2_cleaning-computer-80" d="M337.3,301.4c-4.9,0-9.6-2.3-12.6-6.2c-7.1-8.5,4.4-44.2,5.4-47.1c-0.2-2.5-2.6-28.8,0-36.3&#xA;&#9;&#9;c0-0.1,0.1-0.2,0.2-0.3c5.8-4.3,7.3-17.9,7.3-18c0-0.3,0.2-0.5,0.5-0.6l6.6-1.7c0.2-0.1,0.5,0,0.7,0.2c0.2,0.2,0.2,0.4,0.2,0.7&#xA;&#9;&#9;c0,0.2-4.3,18.5-3.8,23.4c0.3,2.1,1.8,3.8,3.9,4.2c3.1,0.8,6.5-0.9,9-4.5c5.5-7.9,8.5-21.9,8.5-22.1c0.1-0.3,0.4-0.6,0.7-0.6h5.2&#xA;&#9;&#9;c0.2,0,0.4,0.1,0.6,0.3c0.1,0.2,0.2,0.4,0.1,0.6c-4.3,14.4,4.6,31.4,4.7,31.6c0.1,0.1,0.1,0.3,0.1,0.5l-3.8,17.8&#xA;&#9;&#9;c-0.7,33-14.3,52.6-27.5,57.2C341.4,301,339.3,301.4,337.3,301.4z M331.4,212.4c-2.5,7.8,0.1,35.4,0.1,35.7c0,0.1,0,0.2,0,0.3&#xA;&#9;&#9;c-0.1,0.4-12.4,37.9-5.7,45.9c4.5,5.3,10.5,7,17.1,4.7c12.7-4.5,25.9-23.5,26.6-56l3.7-17.7c-1.1-2.1-8.6-17.5-5-31.5h-3.7&#xA;&#9;&#9;c-0.6,2.7-3.6,14.6-8.6,22c-2.9,4.1-6.8,6.1-10.5,5.1c-2.6-0.6-4.6-2.8-4.9-5.4c-0.4-4.4,2.7-18.6,3.6-22.7l-5,1.3&#xA;&#9;&#9;C338.7,196.6,337,208.1,331.4,212.4L331.4,212.4z"/>
	<path class="st1_cleaning-computer-80" d="M361.1,156.4c3.2-0.3,6.4,0.6,9.1,2.4c4.8,3.5,5.9,10.3,2.4,15.1c-0.3,0.4-0.6,0.8-1,1.2&#xA;&#9;&#9;c-2,1.8-4.8,2.6-7.5,2.1c-5.4-0.8-10.7-6.1-11.2-11.6C352.4,160.4,356.1,156.7,361.1,156.4z"/>
	<path class="st2_cleaning-computer-80" d="M365.6,178c-0.6,0-1.1,0-1.7-0.1c-5.8-0.9-11.2-6.5-11.8-12.2c-0.3-2.4,0.4-4.8,2-6.7c1.8-2,4.3-3.1,6.9-3.2&#xA;&#9;&#9;l0,0c3.4-0.3,6.7,0.6,9.5,2.5c2.7,2,4.5,5.1,4.7,8.4c0.3,3.3-0.9,6.6-3.3,8.9C370.3,177.2,368,178.1,365.6,178z M361.1,156.4v0.7&#xA;&#9;&#9;c-2.3,0.1-4.4,1.1-5.9,2.8c-1.3,1.6-1.9,3.6-1.6,5.6c0.5,5.1,5.4,10.2,10.6,11c2.5,0.4,5-0.3,6.9-1.9c2.1-2,3.1-4.9,2.8-7.8&#xA;&#9;&#9;c-0.2-3-1.7-5.7-4.1-7.4c-2.5-1.7-5.6-2.5-8.6-2.2V156.4z"/>
	<path class="st1_cleaning-computer-80" d="M341.1,165.9c4.6-4.9,12.1-5.9,17.8-2.4c7.1,4.3,10.9,18,1.5,22.2c-1,0.3-1.8,1.1-2,2.1&#xA;&#9;&#9;c-2.2,5.6-8.6,6.3-13.4,3.9c-1.6-0.8-3.1-1.9-4.5-3.1C333.7,182.9,335.1,172,341.1,165.9z"/>
	<path class="st2_cleaning-computer-80" d="M350.3,193.8c-2,0-3.9-0.5-5.7-1.4c-1.7-0.9-3.2-1.9-4.6-3.2c-2.9-2.5-4.6-6.2-4.7-10.1&#xA;&#9;&#9;c-0.2-5.1,1.8-10.1,5.3-13.8c4.8-5.1,12.6-6.2,18.7-2.5c4.5,2.8,7.7,9,7.4,14.5c-0.1,3.9-2.4,7.4-6,8.9l-0.2,0.1&#xA;&#9;&#9;c-0.7,0.2-1.2,0.7-1.3,1.4l-0.1,0.2c-0.9,2.3-2.7,4.1-5,5C352.8,193.6,351.6,193.8,350.3,193.8z M351.5,162.1&#xA;&#9;&#9;c-3.7,0-7.3,1.6-9.9,4.3l0,0c-3.3,3.4-5.1,8-4.9,12.7c0.1,3.5,1.6,6.7,4.2,9c1.3,1.2,2.8,2.2,4.3,3c2.5,1.3,5.5,1.6,8.3,0.6&#xA;&#9;&#9;c1.9-0.7,3.5-2.3,4.2-4.2l0.1-0.2c0.2-0.5,0.4-1,0.8-1.4c0.4-0.4,0.8-0.6,1.3-0.8l0.2-0.1c3.1-1.3,5.1-4.4,5.2-7.7&#xA;&#9;&#9;c0.3-5-2.7-10.8-6.7-13.3C356.4,162.8,354,162.1,351.5,162.1z M341.1,165.9L341.1,165.9z"/>
	<path class="st1_cleaning-computer-80" d="M346.7,193.5l-0.7,8.2c0,0,0.7,3.8,6.3,3.1s6.8-4.5,6.8-4.5l0.8-15.4c0,0-8.1-5.4-6.1-14.1&#xA;&#9;&#9;c-2.6,4-7.4,5.9-12,4.8c-0.5,4-0.7,8.1-0.6,12.2C341.4,192,346.7,193.5,346.7,193.5z"/>
	<path class="st2_cleaning-computer-80" d="M350.9,205.5c-4.8,0-5.6-3.7-5.6-3.7c0-0.1,0-0.1,0-0.2l0.7-7.6c-1.5-0.5-5.3-2.3-5.5-6.2&#xA;&#9;&#9;c0-4.1,0.2-8.2,0.6-12.3c0-0.2,0.1-0.4,0.3-0.5c0.2-0.1,0.4-0.1,0.6-0.1c4.3,1,8.8-0.8,11.3-4.5c0.2-0.3,0.5-0.4,0.9-0.3&#xA;&#9;&#9;c0.3,0.1,0.5,0.5,0.4,0.8c-1.9,8.1,5.5,13.1,5.8,13.4c0.2,0.1,0.3,0.4,0.3,0.6l-0.8,15.4c0,0.1,0,0.1,0,0.2c0,0.2-1.4,4.1-7.4,5&#xA;&#9;&#9;C351.9,205.5,351.4,205.5,350.9,205.5z M346.7,201.6c0.1,0.5,1.1,3,5.5,2.4c4.7-0.7,6-3.5,6.2-3.9l0.8-14.9&#xA;&#9;&#9;c-1.4-1.1-6.6-5.5-6.4-12.1c-2.7,2.8-6.6,4-10.4,3.3c-0.4,3.7-0.6,7.5-0.5,11.3c0.2,3.8,5,5.1,5,5.1c0.3,0.1,0.5,0.4,0.5,0.7&#xA;&#9;&#9;L346.7,201.6z"/>
	<path class="st1_cleaning-computer-80" d="M357.3,184.2c0.8-1.8,2.7-2.9,4.7-2.6c2.4,0.6,2.1,3.3,1.2,5c-1.1,2.1-3.8,2.9-5.9,1.7c0,0-0.1,0-0.1,0"/>
	<path class="st2_cleaning-computer-80" d="M359.4,189.6c-0.9,0-1.7-0.2-2.5-0.6c-0.3-0.2-0.5-0.6-0.3-0.9c0,0,0,0,0-0.1c0.2-0.3,0.6-0.5,1-0.3&#xA;&#9;&#9;c0,0,0,0,0,0c0.9,0.5,1.9,0.6,2.8,0.3c0.9-0.3,1.7-0.9,2.2-1.8c0.6-0.9,0.7-2,0.4-3.1c-0.2-0.5-0.6-0.8-1.1-0.9&#xA;&#9;&#9;c-1.6-0.3-3.2,0.6-3.9,2.1c-0.1,0.4-0.5,0.6-0.9,0.4c-0.4-0.1-0.6-0.5-0.4-0.9c0,0,0,0,0,0c0.9-2.2,3.2-3.4,5.5-3&#xA;&#9;&#9;c0.9,0.2,1.7,0.8,2.1,1.7c0.5,1.4,0.3,3-0.5,4.3C363,188.5,361.3,189.5,359.4,189.6L359.4,189.6z"/>
	<path class="st1_cleaning-computer-80" d="M348.3,180.2c0,0-3.4,3.9-2.8,4.7s2.5,0.6,2.5,0.6"/>
	<path class="st2_cleaning-computer-80" d="M347.4,186.3c-0.9,0.1-1.9-0.2-2.5-0.9c-0.2-0.3-0.9-1.3,2.9-5.6c0.3-0.3,0.7-0.3,1,0c0.2,0.2,0.3,0.6,0.1,0.9&#xA;&#9;&#9;c-1.1,1.2-2,2.5-2.7,3.9c0.6,0.3,1.2,0.3,1.8,0.2c0.4,0,0.7,0.2,0.8,0.6c0.1,0.4-0.2,0.7-0.6,0.8c0,0,0,0,0,0&#xA;&#9;&#9;C347.8,186.3,347.6,186.3,347.4,186.3z"/>
	
		<ellipse transform="matrix(0.1224 -0.9925 0.9925 0.1224 131.0747 504.7394)" class="st2_cleaning-computer-80" cx="350.9" cy="178.3" rx="1.6" ry="0.7"/>
	
		<ellipse transform="matrix(0.1224 -0.9925 0.9925 0.1224 124.7045 498.2125)" class="st2_cleaning-computer-80" cx="344.1" cy="178.6" rx="1.6" ry="0.7"/>
	<path class="st2_cleaning-computer-80" d="M346.7,193.5c2.4,0.4,4.9,0,7-1.2c0,0-1.9,5.6-7.4,5.7L346.7,193.5z"/>
	<path class="st2_cleaning-computer-80" d="M346.3,198.6c-0.2,0-0.4-0.1-0.5-0.2c-0.1-0.1-0.2-0.3-0.2-0.5l0.4-4.4c0-0.2,0.1-0.4,0.3-0.5&#xA;&#9;&#9;c0.2-0.1,0.4-0.2,0.6-0.1c2.2,0.4,4.5,0,6.5-1.2c0.3-0.1,0.6-0.1,0.8,0.1c0.2,0.2,0.3,0.5,0.2,0.8&#xA;&#9;&#9;C354.4,192.5,352.2,198.6,346.3,198.6L346.3,198.6z M347.3,194.3l-0.3,2.9c2.2-0.3,4-1.6,5.1-3.5&#xA;&#9;&#9;C350.6,194.2,349,194.4,347.3,194.3L347.3,194.3z"/>
	<path class="st2_cleaning-computer-80" d="M348,190c-1.2,0-2.3-0.3-3.4-0.9c-0.3-0.2-0.4-0.6-0.3-1c0.2-0.3,0.5-0.4,0.9-0.3c1.8,0.9,3.2,1,4.4,0.3&#xA;&#9;&#9;c2.1-1.2,2.5-4.7,2.5-4.7c0-0.4,0.4-0.7,0.8-0.6c0.4,0,0.7,0.4,0.6,0.8c0,0.2-0.4,4.2-3.2,5.8C349.6,189.8,348.8,190,348,190z"/>
	<path class="st1_cleaning-computer-80" d="M330.8,248.2c0,0,14.6,2.4,26.4-4"/>
	<path class="st2_cleaning-computer-80" d="M337.6,249.3c-2.3,0-4.6-0.1-6.9-0.5c-0.4-0.1-0.6-0.4-0.6-0.8c0.1-0.4,0.4-0.6,0.8-0.6c0.1,0,14.5,2.3,26-3.9&#xA;&#9;&#9;c0.3-0.2,0.8-0.1,1,0.3c0.2,0.3,0.1,0.8-0.3,0.9C350.7,248.5,343,249.3,337.6,249.3z"/>
	<path class="st2_cleaning-computer-80" d="M410,331.3c0,0,1,7.5-6,11c0,0-4.6,17.3-1.4,16.9c6.6-0.9,10.3-12.8,10.3-12.8l2.6,0.4c1.3-0.5,4.7-7,4.7-7&#xA;&#9;&#9;L410,331.3z"/>
	<path class="st2_cleaning-computer-80" d="M402.4,359.8c-0.4,0-0.8-0.2-1-0.5c-1.9-2.2,1-13.8,1.9-17.3c0.1-0.2,0.2-0.4,0.4-0.5c3.8-1.9,6.1-6,5.7-10.2&#xA;&#9;&#9;c0-0.3,0.1-0.6,0.4-0.7c0.2-0.1,0.6-0.1,0.8,0.1l10.2,8.5c0.3,0.2,0.3,0.6,0.2,0.9c-1.1,2-3.7,6.8-5.1,7.3c-0.1,0-0.2,0-0.3,0&#xA;&#9;&#9;l-2-0.3c-0.8,2.4-4.5,11.9-10.7,12.7L402.4,359.8z M404.5,342.7c-2.1,7.9-3,15-2.1,15.7c6.1-0.8,9.7-12.2,9.7-12.3&#xA;&#9;&#9;c0.1-0.3,0.4-0.5,0.8-0.5l2.4,0.3c0.7-0.5,2.5-3.4,4-6.1l-8.6-7.1C410.6,337,408.3,340.8,404.5,342.7L404.5,342.7z"/>
	<path class="st1_cleaning-computer-80" d="M425.3,253.5c-0.3-1.5-0.7-2.9-1.1-4.3c-0.3-0.9-0.3-1.9-0.2-2.9c0.2-0.8,0.8-1.4,1.7-1.4&#xA;&#9;&#9;c1.5-0.2,9.8,3.9,12.3,4.1l-0.8,2.7c0,0-3.2-0.8-4.5,0.1s-1.7,3.3-1.7,3.3L425.3,253.5z"/>
	<path class="st2_cleaning-computer-80" d="M431,255.8h-0.2l-5.7-1.6c-0.3-0.1-0.4-0.3-0.5-0.5c-0.3-1.4-0.6-2.8-1.1-4.2c-0.3-1.1-0.4-2.2-0.2-3.3&#xA;&#9;&#9;c0.2-1.1,1.1-2,2.3-2c0.9-0.1,2.7,0.6,5.8,1.9c2.5,1,5.4,2.1,6.6,2.2c0.4,0,0.7,0.3,0.7,0.7c0,0.1,0,0.1,0,0.2l-0.8,2.7&#xA;&#9;&#9;c-0.1,0.4-0.5,0.6-0.9,0.5c-1.1-0.3-3.2-0.5-4,0c-0.8,0.8-1.3,1.8-1.4,2.9c0,0.2-0.2,0.4-0.3,0.5&#xA;&#9;&#9;C431.3,255.8,431.1,255.8,431,255.8z M425.9,253l4.6,1.3c0.3-1.2,0.9-2.2,1.9-3c1.2-0.8,3.3-0.5,4.4-0.3l0.4-1.3&#xA;&#9;&#9;c-2.1-0.6-4.2-1.3-6.2-2.2c-1.7-0.8-3.4-1.4-5.2-1.8c-0.9,0.1-1,0.7-1,0.8c-0.1,0.8-0.1,1.7,0.1,2.5&#xA;&#9;&#9;C425.3,250.3,425.6,251.6,425.9,253z"/>
	<path class="st1_cleaning-computer-80" d="M423.5,257.8c0,0-2.6,4.1-5.7,6c-2.2,1.3-4.6,7.7-6,11.8c-0.6,1.9,0.4,3.9,2.3,4.5c0.1,0,0.1,0,0.2,0.1l10.8,3&#xA;&#9;&#9;c1.9,0.5,3.9-0.6,4.4-2.4c0-0.1,0.1-0.2,0.1-0.4c0.7-4.2,1.7-10.4,1.5-12c-0.3-2.3-2.5-5.3-1.8-9L423.5,257.8z"/>
	<path class="st2_cleaning-computer-80" d="M426.1,284c-0.4,0-0.8-0.1-1.2-0.2l-10.8-3c-2.3-0.6-3.6-3-3-5.3c0-0.1,0-0.1,0.1-0.2c2.3-7,4.4-11,6.2-12.2&#xA;&#9;&#9;c3-1.8,5.4-5.7,5.5-5.8c0.2-0.3,0.5-0.4,0.8-0.3l5.9,1.7c0.4,0.1,0.6,0.5,0.5,0.8c-0.3,2,0.1,4.1,1,6c0.4,0.9,0.6,1.8,0.8,2.7&#xA;&#9;&#9;c0.2,1.2-0.3,5.3-1.5,12.2C429.9,282.5,428.1,284,426.1,284L426.1,284z M423.8,258.6c-1.5,2.3-3.4,4.2-5.6,5.8&#xA;&#9;&#9;c-1.5,0.9-3.5,5.1-5.6,11.4c-0.5,1.5,0.3,3.1,1.8,3.6c0.1,0,0.1,0,0.2,0.1l10.8,3c0.8,0.2,1.6,0.1,2.3-0.3c0.7-0.4,1.2-1.1,1.3-1.9&#xA;&#9;&#9;c1.1-6.4,1.7-10.7,1.5-11.7c-0.2-0.8-0.4-1.6-0.7-2.4c-0.9-1.9-1.3-4-1.1-6.1L423.8,258.6z"/>
	<path class="st3_cleaning-computer-80 targetColor" d="M429,270l-10.9-3.1c-1.1,1-1.9,2.3-2.3,3.7c-0.8,2.6-2.8,5.3-1.9,6.7s3.2,1.7,6.6,2.8s5.1,1.6,6.5,1.1&#xA;&#9;&#9;S429,271.6,429,270z" style="fill: rgb(17, 139, 238);"/>
	<path class="st2_cleaning-computer-80" d="M423.2,278.8c-0.3,0-0.6-0.2-0.7-0.5c-1.5-6.1,2.8-19.4,3-19.9c0.1-0.4,0.5-0.6,0.9-0.5&#xA;&#9;&#9;c0.4,0.1,0.6,0.5,0.5,0.9c0,0.1-4.3,13.5-3,19.1c0.1,0.4-0.1,0.8-0.5,0.9L423.2,278.8z"/>
	
		<rect x="424.8" y="253.1" transform="matrix(0.2718 -0.9624 0.9624 0.2718 64.2121 597.7759)" class="st1_cleaning-computer-80" width="4.6" height="6.8"/>
	<path class="st2_cleaning-computer-80" d="M429.8,260.3c-0.1,0-0.1,0-0.2,0l-6.5-1.8c-0.2-0.1-0.3-0.2-0.4-0.3c-0.1-0.2-0.1-0.4-0.1-0.5l1.2-4.4&#xA;&#9;&#9;c0.1-0.4,0.5-0.6,0.9-0.5l6.5,1.8c0.4,0.1,0.6,0.5,0.5,0.9l-1.2,4.4C430.3,260.1,430.1,260.3,429.8,260.3L429.8,260.3z&#xA;&#9;&#9; M424.1,257.3l5.1,1.5l0.9-3.1l-5.1-1.5L424.1,257.3z"/>
	<path class="st1_cleaning-computer-80" d="M432.7,251.8c0,0,1.1,2.9,3.1,3"/>
	<path class="st2_cleaning-computer-80" d="M435.9,255.6L435.9,255.6c-2.5-0.1-3.7-3.4-3.8-3.5c-0.1-0.4,0-0.8,0.4-0.9c0,0,0,0,0,0&#xA;&#9;&#9;c0.4-0.1,0.8,0.1,0.9,0.4c0.3,0.7,1.2,2.5,2.5,2.6c0.4,0,0.7,0.3,0.7,0.7C436.6,255.2,436.3,255.5,435.9,255.6L435.9,255.6z"/>
	
		<rect x="437.7" y="249.3" transform="matrix(0.2718 -0.9624 0.9624 0.2718 78.4016 605.2514)" class="st1_cleaning-computer-80" width="2.8" height="3.1"/>
	<path class="st2_cleaning-computer-80" d="M440.2,253.3c-0.1,0-0.1,0-0.2,0l-3-0.8c-0.4-0.1-0.6-0.5-0.5-0.9c0,0,0,0,0,0l0.8-2.7&#xA;&#9;&#9;c0.1-0.2,0.2-0.3,0.3-0.4c0.2-0.1,0.4-0.1,0.5-0.1l3,0.8c0.4,0.1,0.6,0.5,0.5,0.9l-0.8,2.7c-0.1,0.2-0.2,0.3-0.3,0.4&#xA;&#9;&#9;C440.4,253.3,440.3,253.3,440.2,253.3z M438.1,251.3l1.6,0.5l0.4-1.4l-1.6-0.5L438.1,251.3z"/>
	<path class="st1_cleaning-computer-80" d="M413.7,263.3c0.7,1,1.5,1.7,2.1,2.7c0.8,1.2,1.8,2.4,2.9,3.4c2.5,2.6,3.6-0.6,2.9-2.9&#xA;&#9;&#9;c-0.9-2.5-3.2-4.2-3.7-6.8"/>
	<path class="st2_cleaning-computer-80" d="M420.3,271.1c-0.8-0.1-1.6-0.5-2.2-1.1l-0.4-0.4c-1-0.9-1.8-2-2.6-3.1c-0.3-0.5-0.7-1.1-1.1-1.5&#xA;&#9;&#9;c-0.3-0.4-0.6-0.7-0.9-1.1c-0.2-0.3-0.2-0.8,0.2-1s0.8-0.2,1,0.2c0.3,0.4,0.5,0.7,0.8,1c0.5,0.5,0.9,1.1,1.3,1.7&#xA;&#9;&#9;c0.7,1,1.5,2,2.4,2.8l0.4,0.4c0.6,0.6,1.1,0.8,1.3,0.7c0.5-0.3,0.8-1.7,0.4-2.9c-0.4-1-1-2-1.7-2.8c-1-1.2-1.7-2.5-2.1-4&#xA;&#9;&#9;c-0.1-0.4,0.2-0.7,0.6-0.8s0.7,0.2,0.8,0.6c0.3,1.3,1,2.5,1.8,3.5c0.8,1,1.4,2,1.9,3.2c0.6,1.6,0.3,3.8-0.9,4.5&#xA;&#9;&#9;C420.9,271,420.6,271.1,420.3,271.1z"/>
</g>
<g id="Bucket_cleaning-computer-80">
	<polygon class="st1_cleaning-computer-80" points="153.7,346.1 108,346.1 107.6,338.2 154.1,338.2 &#9;"/>
	<path class="st2_cleaning-computer-80" d="M153.7,346.9H108c-0.4,0-0.7-0.3-0.7-0.7l-0.4-8c0-0.2,0.1-0.4,0.2-0.5c0.1-0.1,0.3-0.2,0.5-0.2h46.6&#xA;&#9;&#9;c0.2,0,0.4,0.1,0.5,0.2c0.1,0.1,0.2,0.3,0.2,0.5l-0.4,8C154.4,346.6,154.1,346.9,153.7,346.9z M108.6,345.5h44.4l0.4-6.6h-45.1&#xA;&#9;&#9;L108.6,345.5z"/>
	<polygon class="st1_cleaning-computer-80" points="149.9,380.1 111.8,380.1 110.1,346.1 151.6,346.1 &#9;"/>
	<path class="st2_cleaning-computer-80" d="M149.9,380.8h-38c-0.4,0-0.7-0.3-0.7-0.7l-1.7-33.9c0-0.4,0.3-0.7,0.6-0.7c0,0,0,0,0,0h41.4&#xA;&#9;&#9;c0.2,0,0.4,0.1,0.5,0.2c0.1,0.1,0.2,0.3,0.2,0.5l-1.7,33.9C150.6,380.5,150.2,380.8,149.9,380.8z M112.5,379.4h36.7l1.6-32.5h-40&#xA;&#9;&#9;L112.5,379.4z"/>
	<path class="st2_cleaning-computer-80" d="M130.9,372c-14,0-25.4-11.4-25.4-25.4c0-1.9,0.2-3.7,0.6-5.5c0.1-0.4,0.5-0.6,0.8-0.5c0.4,0.1,0.6,0.4,0.5,0.8&#xA;&#9;&#9;c0,0,0,0,0,0c-3,12.9,5.1,25.8,18,28.7s25.8-5.1,28.7-18c0.8-3.5,0.8-7.2,0-10.7c-0.1-0.4,0.2-0.8,0.5-0.8s0.8,0.2,0.8,0.5&#xA;&#9;&#9;c3.1,13.7-5.5,27.2-19.2,30.3C134.6,371.8,132.7,372,130.9,372z"/>
</g>
<g id="Blings_cleaning-computer-80">
	<path class="st0_cleaning-computer-80" d="M206.2,167.8c0,0-2.5,7.7-8.9,10.3c0,0,8.2,0.9,9.9,8.5c0,0,1.7-8.5,8.2-10.6C215.4,176,207.4,176,206.2,167.8&#xA;&#9;&#9;z"/>
	<path class="st0_cleaning-computer-80" d="M231.1,220.4c0,0-2.5,7.7-8.9,10.3c0,0,8.2,0.9,9.9,8.5c0,0,1.7-8.5,8.2-10.6&#xA;&#9;&#9;C240.3,228.5,232.3,228.5,231.1,220.4z"/>
	<path class="st0_cleaning-computer-80" d="M305.5,147.5c0,0-2.1,6.5-7.5,8.7c0,0,6.9,0.7,8.3,7.1c0,0,1.4-7.1,6.9-8.9&#xA;&#9;&#9;C313.2,154.3,306.6,154.3,305.5,147.5z"/>
	<path class="st0_cleaning-computer-80" d="M262.4,242.6c0,0-1.7,5.3-6.1,7.1c0,0,5.6,0.6,6.8,5.8c0,0,1.2-5.8,5.6-7.3&#xA;&#9;&#9;C265.5,248.1,262.8,245.7,262.4,242.6z"/>
</g>
</svg>